<?xml version="1.0" encoding="UTF-8"?>
<!--Generator: Apple Native CoreSVG 149-->
<!DOCTYPE svg
PUBLIC "-//W3C//DTD SVG 1.1//EN"
       "http://www.w3.org/Graphics/SVG/1.1/DTD/svg11.dtd">
<svg version="1.1" xmlns="http://www.w3.org/2000/svg" xmlns:xlink="http://www.w3.org/1999/xlink" width="3300" height="2200">
 <!--glyph: "uni100649.medium", point size: 100.000000, font version: "Version 16.0d18e1", template writer version: "8"-->
 <g id="Notes">
  <rect height="2200" id="artboard" style="fill:white;opacity:1" width="3300" x="0" y="0"/>
  <line id="" style="fill:none;stroke:black;opacity:1;stroke-width:0.5;" x1="263" x2="3036" y1="292" y2="292"/>
  <text style="stroke:none;fill:black;font-family:-apple-system,&quot;SF Pro Display&quot;,&quot;SF Pro Text&quot;,Helvetica,sans-serif;font-weight:bold;" transform="matrix(1 0 0 1 263 322)">Weight/Scale Variations</text>
  <text style="stroke:none;fill:black;font-family:-apple-system,&quot;SF Pro Display&quot;,&quot;SF Pro Text&quot;,Helvetica,sans-serif;text-anchor:middle;" transform="matrix(1 0 0 1 559.711 322)">Ultralight</text>
  <text style="stroke:none;fill:black;font-family:-apple-system,&quot;SF Pro Display&quot;,&quot;SF Pro Text&quot;,Helvetica,sans-serif;text-anchor:middle;" transform="matrix(1 0 0 1 856.422 322)">Thin</text>
  <text style="stroke:none;fill:black;font-family:-apple-system,&quot;SF Pro Display&quot;,&quot;SF Pro Text&quot;,Helvetica,sans-serif;text-anchor:middle;" transform="matrix(1 0 0 1 1153.13 322)">Light</text>
  <text style="stroke:none;fill:black;font-family:-apple-system,&quot;SF Pro Display&quot;,&quot;SF Pro Text&quot;,Helvetica,sans-serif;text-anchor:middle;" transform="matrix(1 0 0 1 1449.84 322)">Regular</text>
  <text style="stroke:none;fill:black;font-family:-apple-system,&quot;SF Pro Display&quot;,&quot;SF Pro Text&quot;,Helvetica,sans-serif;text-anchor:middle;" transform="matrix(1 0 0 1 1746.56 322)">Medium</text>
  <text style="stroke:none;fill:black;font-family:-apple-system,&quot;SF Pro Display&quot;,&quot;SF Pro Text&quot;,Helvetica,sans-serif;text-anchor:middle;" transform="matrix(1 0 0 1 2043.27 322)">Semibold</text>
  <text style="stroke:none;fill:black;font-family:-apple-system,&quot;SF Pro Display&quot;,&quot;SF Pro Text&quot;,Helvetica,sans-serif;text-anchor:middle;" transform="matrix(1 0 0 1 2339.98 322)">Bold</text>
  <text style="stroke:none;fill:black;font-family:-apple-system,&quot;SF Pro Display&quot;,&quot;SF Pro Text&quot;,Helvetica,sans-serif;text-anchor:middle;" transform="matrix(1 0 0 1 2636.69 322)">Heavy</text>
  <text style="stroke:none;fill:black;font-family:-apple-system,&quot;SF Pro Display&quot;,&quot;SF Pro Text&quot;,Helvetica,sans-serif;text-anchor:middle;" transform="matrix(1 0 0 1 2933.4 322)">Black</text>
  <line id="" style="fill:none;stroke:black;opacity:1;stroke-width:0.5;" x1="263" x2="3036" y1="1903" y2="1903"/>
  <g id="" transform="matrix(1 0 0 1 263 1933)">
   <path d="M9.24805 0.830078C13.5547 0.830078 17.1387-2.74414 17.1387-7.05078C17.1387-11.3574 13.5449-14.9316 9.23828-14.9316C4.94141-14.9316 1.36719-11.3574 1.36719-7.05078C1.36719-2.74414 4.95117 0.830078 9.24805 0.830078ZM9.24805-0.654297C5.70312-0.654297 2.87109-3.49609 2.87109-7.05078C2.87109-10.6055 5.69336-13.4473 9.23828-13.4473C12.793-13.4473 15.6348-10.6055 15.6445-7.05078C15.6543-3.49609 12.8027-0.654297 9.24805-0.654297ZM6.39648-6.31836L8.50586-6.31836L8.50586-4.19922C8.50586-3.75977 8.79883-3.45703 9.22852-3.45703C9.67773-3.45703 9.9707-3.75977 9.9707-4.19922L9.9707-6.31836L12.0996-6.31836C12.5391-6.31836 12.8418-6.61133 12.8418-7.04102C12.8418-7.48047 12.5391-7.7832 12.0996-7.7832L9.9707-7.7832L9.9707-9.89258C9.9707-10.3418 9.67773-10.6445 9.22852-10.6445C8.79883-10.6445 8.50586-10.3418 8.50586-9.89258L8.50586-7.7832L6.39648-7.7832C5.94727-7.7832 5.64453-7.48047 5.64453-7.04102C5.64453-6.61133 5.94727-6.31836 6.39648-6.31836Z"/>
  </g>
  <g id="" transform="matrix(1 0 0 1 281.506 1933)">
   <path d="M11.709 2.91016C17.1582 2.91016 21.6699-1.61133 21.6699-7.05078C21.6699-12.5 17.1484-17.0117 11.6992-17.0117C6.25977-17.0117 1.74805-12.5 1.74805-7.05078C1.74805-1.61133 6.26953 2.91016 11.709 2.91016ZM11.709 1.25C7.09961 1.25 3.41797-2.44141 3.41797-7.05078C3.41797-11.6602 7.08984-15.3516 11.6992-15.3516C16.3086-15.3516 20-11.6602 20.0098-7.05078C20.0195-2.44141 16.3184 1.25 11.709 1.25ZM7.98828-6.23047L10.8789-6.23047L10.8789-3.32031C10.8789-2.83203 11.2109-2.5 11.6895-2.5C12.1777-2.5 12.5195-2.83203 12.5195-3.32031L12.5195-6.23047L15.4297-6.23047C15.918-6.23047 16.25-6.5625 16.25-7.04102C16.25-7.5293 15.918-7.87109 15.4297-7.87109L12.5195-7.87109L12.5195-10.7617C12.5195-11.2695 12.1777-11.6016 11.6895-11.6016C11.2109-11.6016 10.8789-11.2598 10.8789-10.7617L10.8789-7.87109L7.98828-7.87109C7.48047-7.87109 7.14844-7.5293 7.14844-7.04102C7.14844-6.5625 7.49023-6.23047 7.98828-6.23047Z"/>
  </g>
  <g id="" transform="matrix(1 0 0 1 304.924 1933)">
   <path d="M14.9707 5.66406C21.9336 5.66406 27.6953-0.0976562 27.6953-7.05078C27.6953-14.0137 21.9238-19.7754 14.9609-19.7754C8.00781-19.7754 2.25586-14.0137 2.25586-7.05078C2.25586-0.0976562 8.01758 5.66406 14.9707 5.66406ZM14.9707 3.84766C8.93555 3.84766 4.08203-1.01562 4.08203-7.05078C4.08203-13.0957 8.92578-17.9492 14.9609-17.9492C21.0059-17.9492 25.8594-13.0957 25.8691-7.05078C25.8789-1.01562 21.0156 3.84766 14.9707 3.84766ZM10.0586-6.14258L14.0625-6.14258L14.0625-2.12891C14.0625-1.5918 14.4336-1.2207 14.9512-1.2207C15.4883-1.2207 15.8594-1.5918 15.8594-2.12891L15.8594-6.14258L19.8828-6.14258C20.4102-6.14258 20.791-6.51367 20.791-7.03125C20.791-7.56836 20.4199-7.94922 19.8828-7.94922L15.8594-7.94922L15.8594-11.9531C15.8594-12.5098 15.4883-12.8809 14.9512-12.8809C14.4336-12.8809 14.0625-12.5 14.0625-11.9531L14.0625-7.94922L10.0586-7.94922C9.50195-7.94922 9.13086-7.56836 9.13086-7.03125C9.13086-6.51367 9.51172-6.14258 10.0586-6.14258Z"/>
  </g>
  <text style="stroke:none;fill:black;font-family:-apple-system,&quot;SF Pro Display&quot;,&quot;SF Pro Text&quot;,Helvetica,sans-serif;font-weight:bold;" transform="matrix(1 0 0 1 263 1953)">Design Variations</text>
  <text style="stroke:none;fill:black;font-family:-apple-system,&quot;SF Pro Display&quot;,&quot;SF Pro Text&quot;,Helvetica,sans-serif;" transform="matrix(1 0 0 1 263 1971)">Symbols are supported in up to nine weights and three scales.</text>
  <text style="stroke:none;fill:black;font-family:-apple-system,&quot;SF Pro Display&quot;,&quot;SF Pro Text&quot;,Helvetica,sans-serif;" transform="matrix(1 0 0 1 263 1989)">For optimal layout with text and other symbols, vertically align</text>
  <text style="stroke:none;fill:black;font-family:-apple-system,&quot;SF Pro Display&quot;,&quot;SF Pro Text&quot;,Helvetica,sans-serif;" transform="matrix(1 0 0 1 263 2007)">symbols with the adjacent text.</text>
  <line id="" style="fill:none;stroke:#00AEEF;stroke-width:0.5;opacity:1.0;" x1="776" x2="776" y1="1919" y2="1933"/>
  <g id="" transform="matrix(1 0 0 1 776 1933)">
   <path d="M3.31055 0.126953C3.82812 0.126953 4.08203-0.0683594 4.26758-0.605469L5.52734-4.0625L11.2891-4.0625L12.5488-0.605469C12.7344-0.0683594 12.9883 0.126953 13.4961 0.126953C14.0137 0.126953 14.3457-0.185547 14.3457-0.673828C14.3457-0.839844 14.3164-0.986328 14.2383-1.20117L9.6582-13.3887C9.43359-13.9941 9.0332-14.2871 8.4082-14.2871C7.80273-14.2871 7.39258-13.9941 7.17773-13.3984L2.59766-1.19141C2.51953-0.976562 2.49023-0.830078 2.49023-0.664062C2.49023-0.175781 2.80273 0.126953 3.31055 0.126953ZM6.00586-5.53711L8.37891-12.1094L8.42773-12.1094L10.8008-5.53711Z"/>
  </g>
  <line id="" style="fill:none;stroke:#00AEEF;stroke-width:0.5;opacity:1.0;" x1="792.836" x2="792.836" y1="1919" y2="1933"/>
  <text style="stroke:none;fill:black;font-family:-apple-system,&quot;SF Pro Display&quot;,&quot;SF Pro Text&quot;,Helvetica,sans-serif;font-weight:bold;" transform="matrix(1 0 0 1 776 1953)">Margins</text>
  <text style="stroke:none;fill:black;font-family:-apple-system,&quot;SF Pro Display&quot;,&quot;SF Pro Text&quot;,Helvetica,sans-serif;" transform="matrix(1 0 0 1 776 1971)">Leading and trailing margins on the left and right side of each symbol</text>
  <text style="stroke:none;fill:black;font-family:-apple-system,&quot;SF Pro Display&quot;,&quot;SF Pro Text&quot;,Helvetica,sans-serif;" transform="matrix(1 0 0 1 776 1989)">can be adjusted by modifying the x-location of the margin guidelines.</text>
  <text style="stroke:none;fill:black;font-family:-apple-system,&quot;SF Pro Display&quot;,&quot;SF Pro Text&quot;,Helvetica,sans-serif;" transform="matrix(1 0 0 1 776 2007)">Modifications are automatically applied proportionally to all</text>
  <text style="stroke:none;fill:black;font-family:-apple-system,&quot;SF Pro Display&quot;,&quot;SF Pro Text&quot;,Helvetica,sans-serif;" transform="matrix(1 0 0 1 776 2025)">scales and weights.</text>
  <g id="" transform="matrix(1 0 0 1 1289 1933)">
   <path d="M2.8418 1.86523L4.54102 3.57422C5.40039 4.44336 6.38672 4.38477 7.31445 3.35938L17.4902-7.85156C17.7539-7.76367 18.0273-7.7832 18.3398-7.8418L19.4043-8.03711L20.0684-7.36328L20.0293-6.80664C19.9902-6.30859 20.1172-5.92773 20.6055-5.44922L21.3672-4.70703C21.8457-4.22852 22.4609-4.19922 22.9297-4.66797L25.8398-7.58789C26.3086-8.05664 26.2891-8.65234 25.8105-9.13086L25.0391-9.89258C24.5605-10.3711 24.1895-10.5273 23.7109-10.4883L23.1348-10.4395L22.4902-11.0742L22.7344-12.1973C22.8613-12.7637 22.7051-13.2031 22.1191-13.7891L19.9219-15.9766C16.582-19.2969 12.1484-19.2188 9.25781-16.3281C8.83789-15.918 8.80859-15.3418 9.04297-14.9512C9.27734-14.5898 9.73633-14.3555 10.3809-14.5215C11.8457-14.8633 13.3691-14.9219 14.7949-13.9844L14.209-12.5293C14.0137-12.0508 13.9844-11.6504 14.1113-11.2891L3.04688-0.898438C2.06055 0.0195312 1.98242 0.996094 2.8418 1.86523ZM10.752-15.957C13.1836-17.7344 16.4746-17.4316 18.7012-15.2051L21.1328-12.793C21.3672-12.5586 21.4062-12.373 21.3379-12.0312L21.0156-10.5469L22.5195-9.0625L23.5059-9.12109C23.7598-9.13086 23.8379-9.11133 24.0332-8.91602L24.6094-8.33984L22.168-5.89844L21.5918-6.47461C21.3965-6.66992 21.3672-6.74805 21.377-7.01172L21.4453-7.98828L19.9512-9.47266L18.4277-9.21875C18.1055-9.15039 17.959-9.17969 17.7148-9.41406L15.7129-11.416C15.459-11.6504 15.4297-11.8164 15.5859-12.1875L16.4648-14.2773C14.9023-15.7324 12.8711-16.3574 10.8398-15.7617C10.6836-15.7227 10.625-15.8496 10.752-15.957ZM5.27344 2.30469L4.10156 1.14258C3.63281 0.683594 3.74023 0.341797 4.14062-0.0195312L14.9512-10.1953L16.416-8.71094L6.42578 2.27539C6.07422 2.67578 5.74219 2.77344 5.27344 2.30469Z"/>
  </g>
  <text style="stroke:none;fill:black;font-family:-apple-system,&quot;SF Pro Display&quot;,&quot;SF Pro Text&quot;,Helvetica,sans-serif;font-weight:bold;" transform="matrix(1 0 0 1 1289 1953)">Exporting</text>
  <text style="stroke:none;fill:black;font-family:-apple-system,&quot;SF Pro Display&quot;,&quot;SF Pro Text&quot;,Helvetica,sans-serif;" transform="matrix(1 0 0 1 1289 1971)">Symbols should be outlined when exporting to ensure the</text>
  <text style="stroke:none;fill:black;font-family:-apple-system,&quot;SF Pro Display&quot;,&quot;SF Pro Text&quot;,Helvetica,sans-serif;" transform="matrix(1 0 0 1 1289 1989)">design is preserved when submitting to Xcode.</text>
  <text id="template-version" style="stroke:none;fill:black;font-family:-apple-system,&quot;SF Pro Display&quot;,&quot;SF Pro Text&quot;,Helvetica,sans-serif;text-anchor:end;" transform="matrix(1 0 0 1 3036 1933)">Template v.2.0</text>
  <text style="stroke:none;fill:black;font-family:-apple-system,&quot;SF Pro Display&quot;,&quot;SF Pro Text&quot;,Helvetica,sans-serif;text-anchor:end;" transform="matrix(1 0 0 1 3036 1951)">Requires Xcode 12 or greater</text>
  <text style="stroke:none;fill:black;font-family:-apple-system,&quot;SF Pro Display&quot;,&quot;SF Pro Text&quot;,Helvetica,sans-serif;text-anchor:end;" transform="matrix(1 0 0 1 3036 1969)">Generated from mappin.slash</text>
  <text style="stroke:none;fill:black;font-family:-apple-system,&quot;SF Pro Display&quot;,&quot;SF Pro Text&quot;,Helvetica,sans-serif;text-anchor:end;" transform="matrix(1 0 0 1 3036 1987)">Typeset at 100 points</text>
  <text style="stroke:none;fill:black;font-family:-apple-system,&quot;SF Pro Display&quot;,&quot;SF Pro Text&quot;,Helvetica,sans-serif;" transform="matrix(1 0 0 1 263 726)">Small</text>
  <text style="stroke:none;fill:black;font-family:-apple-system,&quot;SF Pro Display&quot;,&quot;SF Pro Text&quot;,Helvetica,sans-serif;" transform="matrix(1 0 0 1 263 1156)">Medium</text>
  <text style="stroke:none;fill:black;font-family:-apple-system,&quot;SF Pro Display&quot;,&quot;SF Pro Text&quot;,Helvetica,sans-serif;" transform="matrix(1 0 0 1 263 1586)">Large</text>
 </g>
 <g id="Guides">
  <g id="H-reference" style="fill:#27AAE1;stroke:none;" transform="matrix(1 0 0 1 339 696)">
   <path d="M0.976562 0L3.66211 0L12.9883-24.4629L45.752-24.4629L55.127 0L57.7637 0L30.6152-70.459L28.125-70.459ZM29.3457-67.1387L29.4434-67.1387L44.873-26.709L13.8672-26.709Z"/>
  </g>
  <line id="Baseline-S" style="fill:none;stroke:#27AAE1;opacity:1;stroke-width:0.5;" x1="263" x2="3036" y1="696" y2="696"/>
  <line id="Capline-S" style="fill:none;stroke:#27AAE1;opacity:1;stroke-width:0.5;" x1="263" x2="3036" y1="625.541" y2="625.541"/>
  <g id="H-reference" style="fill:#27AAE1;stroke:none;" transform="matrix(1 0 0 1 339 1126)">
   <path d="M0.976562 0L3.66211 0L12.9883-24.4629L45.752-24.4629L55.127 0L57.7637 0L30.6152-70.459L28.125-70.459ZM29.3457-67.1387L29.4434-67.1387L44.873-26.709L13.8672-26.709Z"/>
  </g>
  <line id="Baseline-M" style="fill:none;stroke:#27AAE1;opacity:1;stroke-width:0.5;" x1="263" x2="3036" y1="1126" y2="1126"/>
  <line id="Capline-M" style="fill:none;stroke:#27AAE1;opacity:1;stroke-width:0.5;" x1="263" x2="3036" y1="1055.54" y2="1055.54"/>
  <g id="H-reference" style="fill:#27AAE1;stroke:none;" transform="matrix(1 0 0 1 339 1556)">
   <path d="M0.976562 0L3.66211 0L12.9883-24.4629L45.752-24.4629L55.127 0L57.7637 0L30.6152-70.459L28.125-70.459ZM29.3457-67.1387L29.4434-67.1387L44.873-26.709L13.8672-26.709Z"/>
  </g>
  <line id="Baseline-L" style="fill:none;stroke:#27AAE1;opacity:1;stroke-width:0.5;" x1="263" x2="3036" y1="1556" y2="1556"/>
  <line id="Capline-L" style="fill:none;stroke:#27AAE1;opacity:1;stroke-width:0.5;" x1="263" x2="3036" y1="1485.54" y2="1485.54"/>
  <line id="left-margin" style="fill:none;stroke:#00AEEF;stroke-width:0.5;opacity:1.0;" x1="1402.77" x2="1402.77" y1="1030.79" y2="1150.12"/>
  <line id="right-margin" style="fill:none;stroke:#00AEEF;stroke-width:0.5;opacity:1.0;" x1="1496.91" x2="1496.91" y1="1030.79" y2="1150.12"/>
 </g>
 <g id="Symbols">
  <g id="Black-L" transform="matrix(1 0 0 1 2868.14 1556)">
   <path d="M55.9082-47.9492L74.5605-29.4434L74.5605-54.2969C86.377-58.2031 94.8242-69.3848 94.8242-82.4707C94.8242-98.8281 81.7383-112.158 65.2832-112.158C48.877-112.158 35.6934-98.8281 35.6934-82.4707C35.6934-69.3848 44.1406-58.252 55.9082-54.3457ZM56.9824-80.6152C51.6113-80.6152 46.875-85.3516 46.875-90.8203C46.875-96.2891 51.6113-100.928 56.9824-100.928C62.5977-100.928 67.0898-96.2891 67.0898-90.8203C67.0898-85.3516 62.5977-80.6152 56.9824-80.6152ZM103.076 28.6133C105.322 30.8594 108.936 30.8594 111.182 28.6133C113.428 26.3672 113.379 22.6562 111.182 20.459L19.4824-71.2891C17.2852-73.4863 13.5254-73.5352 11.2793-71.2891C9.08203-69.0918 9.08203-65.332 11.2793-63.1348ZM55.9082 6.49414C55.9082 19.5312 62.3047 31.9824 65.2832 31.9824C67.5293 31.9824 72.9492 23.1445 73.584 13.7207L73.7793 12.3535L55.9082-5.46875Z"/>
  </g>
  <g id="Heavy-L" transform="matrix(1 0 0 1 2573.11 1556)">
   <path d="M55.2734-48.2422L71.8262-31.7383L71.8262-55.2734C83.2031-58.7891 91.3574-69.4336 91.3574-81.9336C91.3574-97.3145 79.0527-109.863 63.5742-109.863C48.1445-109.863 35.791-97.3145 35.791-81.9336C35.791-69.4824 43.9453-58.8379 55.2734-55.3223ZM55.7129-80.2734C50.6836-80.2734 46.2402-84.7168 46.2402-89.8438C46.2402-95.0195 50.6836-99.3652 55.7129-99.3652C60.9863-99.3652 65.2344-95.0195 65.2344-89.8438C65.2344-84.7168 60.9863-80.2734 55.7129-80.2734ZM101.367 25.4395C103.467 27.5391 106.885 27.5391 108.984 25.4395C111.035 23.3398 111.035 19.873 108.984 17.8223L18.8477-72.3145C16.7969-74.3652 13.2812-74.4141 11.1328-72.3145C9.13086-70.3125 9.13086-66.748 11.1328-64.7461ZM55.2734 5.9082C55.2734 19.5801 60.8398 31.1523 63.5742 31.1523C65.8203 31.1523 70.5566 22.5586 71.0938 12.1582L71.1914 7.56836L55.2734-8.34961Z"/>
  </g>
  <g id="Bold-L" transform="matrix(1 0 0 1 2278.28 1556)">
   <path d="M54.541-48.5352L68.75-34.3262L68.75-56.3965C79.6387-59.4727 87.5-69.4824 87.5-81.2988C87.5-95.6055 76.0742-107.275 61.6699-107.275C47.3633-107.275 35.8398-95.6055 35.8398-81.2988C35.8398-69.5312 43.7012-59.5215 54.541-56.3965ZM54.2969-79.8828C49.6094-79.8828 45.459-83.9844 45.459-88.7695C45.459-93.5547 49.6094-97.6074 54.2969-97.6074C59.1797-97.6074 63.1348-93.5547 63.1348-88.7695C63.1348-83.9844 59.1797-79.8828 54.2969-79.8828ZM99.4629 21.875C101.416 23.8281 104.59 23.8281 106.494 21.875C108.35 19.9219 108.398 16.7969 106.494 14.8438L18.1152-73.4863C16.2109-75.3906 12.9883-75.4395 11.0352-73.4863C9.17969-71.6309 9.17969-68.3594 11.0352-66.5039ZM54.541 5.22461C54.541 19.6777 59.1309 30.1758 61.6699 30.1758C63.8184 30.1758 67.9199 21.9238 68.2617 10.4492L68.3594 2.24609L54.541-11.5723Z"/>
  </g>
  <g id="Semibold-L" transform="matrix(1 0 0 1 1982.89 1556)">
   <path d="M54.0527-48.7305L66.6504-36.1328L66.6504-57.1777C77.1973-59.9609 84.8633-69.5312 84.8633-80.9082C84.8633-94.4336 73.9746-105.469 60.4004-105.469C46.7773-105.469 35.9375-94.4336 35.9375-80.9082C35.9375-69.5801 43.5547-60.0098 54.0527-57.1777ZM53.3203-79.5898C48.877-79.5898 44.9707-83.4961 44.9707-88.0371C44.9707-92.5781 48.877-96.3867 53.3203-96.3867C57.959-96.3867 61.7188-92.5781 61.7188-88.0371C61.7188-83.4961 57.959-79.5898 53.3203-79.5898ZM98.1934 19.4336C100 21.2402 102.979 21.2402 104.785 19.4336C106.543 17.627 106.592 14.6484 104.785 12.793L17.627-74.3164C15.8691-76.0742 12.793-76.123 10.9863-74.3164C9.17969-72.5586 9.17969-69.4824 10.9863-67.7246ZM54.0527 4.78516C54.0527 19.7266 57.959 29.4922 60.4004 29.4922C62.5 29.4922 66.1133 21.4844 66.3086 9.22852L66.4062-1.46484L54.0527-13.8184Z"/>
  </g>
  <g id="Medium-L" transform="matrix(1 0 0 1 1687.16 1556)">
   <path d="M53.6621-48.9258L65.0879-37.5L65.0879-57.7637C75.3418-60.3027 82.8125-69.5801 82.8125-80.5664C82.8125-93.5547 72.4121-104.102 59.375-104.102C46.3867-104.102 35.9863-93.5547 35.9863-80.5664C35.9863-69.6289 43.457-60.3516 53.6621-57.7637ZM52.5879-79.3945C48.3398-79.3945 44.5801-83.1055 44.5801-87.4512C44.5801-91.7969 48.3398-95.459 52.5879-95.459C56.9824-95.459 60.5957-91.7969 60.5957-87.4512C60.5957-83.1055 56.9824-79.3945 52.5879-79.3945ZM97.168 17.5781C98.9258 19.2871 101.758 19.2871 103.467 17.5781C105.127 15.8203 105.225 12.9883 103.467 11.2793L17.2363-74.9512C15.5762-76.6113 12.6465-76.6602 10.8887-74.9512C9.22852-73.2422 9.22852-70.3125 10.8887-68.6523ZM53.6621 4.39453C53.6621 19.7266 57.0801 29.0039 59.375 29.0039C61.4746 29.0039 64.7461 21.1426 64.8438 8.34961L64.8926-4.29688L53.6621-15.4785Z"/>
  </g>
  <g id="Regular-L" transform="matrix(1 0 0 1 1391.74 1556)">
   <path d="M53.1738-49.1211L62.9883-39.2578L62.9883-58.5449C72.9004-60.791 80.1758-69.6289 80.1758-80.1758C80.1758-92.3828 70.4102-102.344 58.1055-102.344C45.8496-102.344 36.0352-92.3828 36.0352-80.1758C36.0352-69.6777 43.3105-60.791 53.1738-58.5449ZM51.6113-79.1016C47.6074-79.1016 44.0918-82.6172 44.0918-86.7188C44.0918-90.8203 47.6074-94.2871 51.6113-94.2871C55.7617-94.2871 59.1797-90.8203 59.1797-86.7188C59.1797-82.6172 55.7617-79.1016 51.6113-79.1016ZM95.8984 15.1367C97.5098 16.748 100.195 16.748 101.807 15.1367C103.32 13.5254 103.418 10.8887 101.807 9.22852L16.748-75.7324C15.1855-77.2949 12.4512-77.3438 10.8398-75.7324C9.22852-74.1699 9.22852-71.4355 10.8398-69.8242ZM53.1738 3.95508C53.1738 19.7754 55.957 28.3691 58.1055 28.3691C60.1074 28.3691 62.9395 20.7031 62.9395 7.17773L62.9395-7.91016L53.1738-17.7246Z"/>
  </g>
  <g id="Light-L" transform="matrix(1 0 0 1 1098.59 1556)">
   <path d="M50.8789-47.8027L58.1543-40.4785L58.1543-59.7656C67.5293-61.4746 74.5117-69.6777 74.5117-79.4922C74.5117-90.5273 65.6738-99.5117 54.541-99.5117C43.4082-99.5117 34.5703-90.5273 34.5703-79.4922C34.5703-69.6777 41.5527-61.4746 50.8789-59.7656ZM48.4863-78.7598C44.8242-78.7598 41.6504-81.9336 41.6504-85.5957C41.6504-89.3066 44.8242-92.4316 48.4863-92.4316C52.1973-92.4316 55.3223-89.3066 55.3223-85.5957C55.3223-81.9336 52.1973-78.7598 48.4863-78.7598ZM91.6992 11.1328C92.9688 12.4023 95.0195 12.4023 96.2402 11.1328C97.4609 9.91211 97.5098 7.86133 96.2402 6.5918L15.1367-74.5117C14.0137-75.6348 11.8164-75.7812 10.5469-74.5117C9.32617-73.2422 9.32617-71.1914 10.5469-69.9219ZM50.8789 8.34961C50.8789 20.5078 52.9297 26.8555 54.541 26.8555C56.0547 26.8555 58.1543 21.0938 58.1543 10.3516L58.1543-13.3301L50.8789-20.6055Z"/>
  </g>
  <g id="Thin-L" transform="matrix(1 0 0 1 806.593 1556)">
   <path d="M47.8516-46.0449L51.8066-42.0898L51.8066-61.4258C60.4004-62.4023 66.9922-69.7266 66.9922-78.5645C66.9922-88.0371 59.375-95.752 49.8047-95.752C40.2344-95.752 32.666-88.0371 32.666-78.5645C32.666-69.7266 39.209-62.4023 47.8516-61.4258ZM44.2871-78.2715C41.1621-78.2715 38.4277-80.957 38.4277-84.1309C38.4277-87.3535 41.1621-90.0391 44.2871-90.0391C47.5098-90.0391 50.1953-87.3535 50.1953-84.1309C50.1953-80.957 47.5098-78.2715 44.2871-78.2715ZM86.1328 5.85938C86.9141 6.64062 88.1836 6.64062 88.9648 5.85938C89.6484 5.17578 89.7461 3.80859 88.9648 3.07617L13.0371-72.8516C12.4023-73.4863 10.9863-73.6328 10.2051-72.8516C9.47266-72.0703 9.47266-70.8496 10.2051-70.0684ZM47.8516 14.1602C47.8516 21.4355 48.9258 24.9023 49.8047 24.9023C50.7324 24.9023 51.8066 21.6309 51.8066 14.5996L51.8066-20.5078L47.8516-24.4629Z"/>
  </g>
  <g id="Ultralight-L" transform="matrix(1 0 0 1 512.299 1556)">
   <path d="M46.2891-45.1172L48.5352-42.9199L48.5352-62.3047C56.7871-62.8906 63.1348-69.7266 63.1348-78.0762C63.1348-86.7676 56.2012-93.8477 47.4121-93.8477C38.623-93.8477 31.6895-86.7676 31.6895-78.0762C31.6895-69.7266 38.0371-62.8906 46.2891-62.3047ZM42.1387-78.0273C39.3066-78.0273 36.7676-80.4688 36.7676-83.3984C36.7676-86.3281 39.3066-88.7695 42.1387-88.7695C45.0684-88.7695 47.5586-86.3281 47.5586-83.3984C47.5586-80.4688 45.0684-78.0273 42.1387-78.0273ZM83.3008 3.17383C83.8379 3.66211 84.668 3.66211 85.2051 3.17383C85.6445 2.73438 85.7422 1.75781 85.2051 1.26953L11.9629-72.0215C11.5723-72.3633 10.5469-72.5586 10.0586-72.0215C9.52148-71.4844 9.52148-70.6543 10.0586-70.1172ZM46.2891 17.1387C46.2891 21.875 46.875 23.9258 47.4121 23.9258C47.998 23.9258 48.5352 21.875 48.5352 16.748L48.5352-24.1699L46.2891-26.416Z"/>
  </g>
  <g id="Black-M" transform="matrix(1 0 0 1 2882.45 1126)">
   <path d="M42.9688-44.043L58.8379-28.2715L58.8379-49.2676C68.3594-52.5879 75.0977-61.6211 75.0977-72.168C75.0977-85.5957 64.4043-96.4844 50.9277-96.4844C37.5488-96.4844 26.8066-85.5957 26.8066-72.168C26.8066-61.6211 33.5449-52.6367 42.9688-49.3164ZM44.1895-70.7031C39.7949-70.7031 35.9375-74.5605 35.9375-79.0039C35.9375-83.4961 39.7949-87.2559 44.1895-87.2559C48.7793-87.2559 52.4414-83.4961 52.4414-79.0039C52.4414-74.5605 48.7793-70.7031 44.1895-70.7031ZM79.8828 16.4062C81.6406 18.1641 84.4727 18.1641 86.1816 16.4062C87.9395 14.6484 87.8906 11.7676 86.1816 10.1074L15.0879-61.084C13.3789-62.7441 10.4492-62.8418 8.74023-61.084C7.03125-59.375 7.03125-56.4453 8.74023-54.7852ZM42.9688 0.292969C42.9688 7.51953 48.7305 17.2363 50.9277 17.2363C52.5391 17.2363 57.1289 10.9863 57.8613 6.49414L58.0566 5.22461L42.9688-9.81445Z"/>
  </g>
  <g id="Heavy-M" transform="matrix(1 0 0 1 2586.66 1126)">
   <path d="M42.8711-44.6777L57.1289-30.4688L57.1289-50.0488C66.3086-53.0273 72.8027-61.6699 72.8027-71.7773C72.8027-84.4238 62.6953-94.6777 50.0488-94.6777C37.4023-94.6777 27.2461-84.4238 27.2461-71.7773C27.2461-61.7188 33.7891-53.0762 42.8711-50.0977ZM43.6523-70.4102C39.502-70.4102 35.8398-74.0723 35.8398-78.2227C35.8398-82.4707 39.502-86.0352 43.6523-86.0352C47.9492-86.0352 51.416-82.4707 51.416-78.2227C51.416-74.0723 47.9492-70.4102 43.6523-70.4102ZM79.1504 13.9648C80.8105 15.625 83.5449 15.625 85.2051 13.9648C86.8652 12.3047 86.8652 9.52148 85.2051 7.91016L14.7949-62.5488C13.1836-64.1602 10.3516-64.2578 8.69141-62.5488C7.08008-60.9375 7.08008-58.1055 8.69141-56.4941ZM42.8711-1.51367C42.8711 7.42188 47.8516 16.6992 50.0488 16.6992C51.709 16.6992 55.8105 10.2539 56.3477 3.95508L56.4941 1.41602L42.8711-12.207Z"/>
  </g>
  <g id="Bold-M" transform="matrix(1 0 0 1 2290.98 1126)">
   <path d="M42.7246-45.4102L55.2246-32.959L55.2246-50.9277C63.9648-53.6133 70.2637-61.7676 70.2637-71.3379C70.2637-83.0566 60.8398-92.6758 49.0234-92.6758C37.207-92.6758 27.7832-83.0566 27.7832-71.3379C27.7832-61.7676 34.0332-53.6621 42.7246-50.9766ZM43.0176-70.0684C39.1602-70.0684 35.7422-73.4863 35.7422-77.3926C35.7422-81.3477 39.1602-84.668 43.0176-84.668C47.0215-84.668 50.2441-81.3477 50.2441-77.3926C50.2441-73.4863 47.0215-70.0684 43.0176-70.0684ZM78.3203 11.2305C79.9316 12.8418 82.5195 12.8418 84.1309 11.2305C85.6934 9.61914 85.6934 6.98242 84.1309 5.41992L14.502-64.209C12.9395-65.7715 10.2539-65.8203 8.64258-64.209C7.08008-62.6465 7.08008-59.9609 8.64258-58.3984ZM42.7246-3.56445C42.7246 7.27539 46.875 16.0645 49.0234 16.0645C50.7324 16.0645 54.3457 9.47266 54.6875 1.17188L54.7852-2.88086L42.7246-14.8926Z"/>
  </g>
  <g id="Semibold-M" transform="matrix(1 0 0 1 1994.98 1126)">
   <path d="M42.6758-45.8984L53.9062-34.668L53.9062-51.5625C62.3535-53.9551 68.457-61.8164 68.457-70.9961C68.457-82.1777 59.5215-91.2598 48.291-91.2598C37.1094-91.2598 28.125-82.1777 28.125-70.9961C28.125-61.8164 34.2285-54.0039 42.6758-51.5625ZM42.5781-69.8242C38.916-69.8242 35.6445-73.0957 35.6445-76.8066C35.6445-80.5664 38.916-83.6914 42.5781-83.6914C46.3867-83.6914 49.4629-80.5664 49.4629-76.8066C49.4629-73.0957 46.3867-69.8242 42.5781-69.8242ZM77.7344 9.375C79.2969 10.8887 81.8359 10.8887 83.3496 9.375C84.8633 7.8125 84.9121 5.27344 83.3496 3.71094L14.2578-65.332C12.7441-66.8457 10.1562-66.8945 8.59375-65.332C7.08008-63.8184 7.08008-61.2305 8.59375-59.7168ZM42.6758-4.93164C42.6758 7.17773 46.2402 15.625 48.291 15.625C50.0488 15.625 53.3203 8.88672 53.5156-0.78125L53.5645-5.81055L42.6758-16.748Z"/>
  </g>
  <g id="Medium-M" transform="matrix(1 0 0 1 1698.8 1126)">
   <path d="M42.5781-46.2402L52.8809-35.9375L52.8809-52.002C61.1328-54.248 67.1387-61.8164 67.1387-70.752C67.1387-81.4941 58.5449-90.2344 47.7539-90.2344C37.0117-90.2344 28.3691-81.4941 28.3691-70.752C28.3691-61.8652 34.375-54.2969 42.5781-52.0508ZM42.2363-69.6777C38.7207-69.6777 35.5957-72.7539 35.5957-76.3672C35.5957-79.9316 38.7207-82.959 42.2363-82.959C45.8984-82.959 48.877-79.9316 48.877-76.3672C48.877-72.7539 45.8984-69.6777 42.2363-69.6777ZM77.2949 7.91016C78.8086 9.47266 81.2988 9.47266 82.7637 7.91016C84.2285 6.39648 84.2773 3.95508 82.7637 2.44141L14.1113-66.2109C12.6465-67.6758 10.1074-67.7246 8.59375-66.2109C7.08008-64.7461 7.08008-62.1582 8.59375-60.6934ZM42.5781-6.00586C42.5781 7.08008 45.752 15.332 47.7539 15.332C49.5605 15.332 52.5391 8.44727 52.6367-2.24609L52.6855-8.05664L42.5781-18.1641Z"/>
  </g>
  <g id="Regular-M" transform="matrix(1 0 0 1 1402.77 1126)">
   <path d="M42.5293-46.7285L51.5625-37.6465L51.5625-52.6367C59.5215-54.6387 65.3809-61.8652 65.3809-70.459C65.3809-80.5664 57.2266-88.8672 47.0703-88.8672C36.8652-88.8672 28.7598-80.5664 28.7598-70.459C28.7598-61.9141 34.5703-54.6875 42.5293-52.6367ZM41.7969-69.4336C38.4766-69.4336 35.5469-72.3633 35.5469-75.7812C35.5469-79.1504 38.4766-82.0312 41.7969-82.0312C45.2637-82.0312 48.0957-79.1504 48.0957-75.7812C48.0957-72.3633 45.2637-69.4336 41.7969-69.4336ZM76.709 6.05469C78.1738 7.51953 80.6152 7.51953 82.0312 6.05469C83.4473 4.58984 83.4961 2.24609 82.0312 0.732422L13.916-67.334C12.4512-68.75 10.0098-68.7988 8.54492-67.334C7.12891-65.918 7.12891-63.4277 8.54492-62.0117ZM42.5293-7.37305C42.5293 7.03125 45.0684 14.8926 47.0703 14.8926C48.877 14.8926 51.5137 7.91016 51.5137-4.19922L51.5137-10.9863L42.5293-20.0195Z"/>
  </g>
  <g id="Light-M" transform="matrix(1 0 0 1 1109.26 1126)">
   <path d="M40.4785-45.5566L47.2168-38.7207L47.2168-53.7109C54.7363-55.2734 60.3027-61.9141 60.3027-69.8242C60.3027-78.9062 52.9785-86.3281 43.8477-86.3281C34.7168-86.3281 27.4414-78.9062 27.4414-69.8242C27.4414-61.9141 32.959-55.2734 40.4785-53.7109ZM38.9648-69.1406C35.9863-69.1406 33.3496-71.7285 33.3496-74.7559C33.3496-77.832 35.9863-80.3711 38.9648-80.3711C42.041-80.3711 44.5801-77.832 44.5801-74.7559C44.5801-71.7285 42.041-69.1406 38.9648-69.1406ZM72.9492 2.49023C74.0723 3.61328 75.9766 3.61328 77.0508 2.49023C78.1738 1.36719 78.2227-0.488281 77.0508-1.66016L12.4512-66.2109C11.377-67.2852 9.42383-67.334 8.30078-66.2109C7.17773-65.0879 7.17773-63.1836 8.30078-62.1094ZM40.4785-3.41797C40.4785 7.61719 42.3828 13.5742 43.8477 13.5742C45.2637 13.5742 47.2168 8.25195 47.2168-1.31836L47.2168-15.8691L40.4785-22.6074Z"/>
  </g>
  <g id="Thin-M" transform="matrix(1 0 0 1 816.798 1126)">
   <path d="M37.7441-43.9941L41.5039-40.1855L41.5039-55.1758C48.3398-56.0547 53.5156-61.9629 53.5156-68.9941C53.5156-76.709 47.4121-82.959 39.6484-82.959C31.8848-82.959 25.7324-76.709 25.7324-68.9941C25.7324-61.9629 30.9082-56.1035 37.7441-55.1758ZM35.2539-68.7012C32.7148-68.7012 30.4688-70.8984 30.4688-73.4375C30.4688-76.0254 32.7148-78.2227 35.2539-78.2227C37.8418-78.2227 39.9902-76.0254 39.9902-73.4375C39.9902-70.8984 37.8418-68.7012 35.2539-68.7012ZM67.9688-2.24609C68.6523-1.5625 69.8242-1.5625 70.5078-2.24609C71.1426-2.88086 71.2402-4.10156 70.5078-4.78516L10.5469-64.7461C9.96094-65.332 8.69141-65.4297 8.00781-64.7461C7.32422-64.0625 7.32422-62.8906 8.00781-62.207ZM37.7441 1.80664C37.7441 8.49609 38.7695 11.8164 39.6484 11.8164C40.4785 11.8164 41.5039 8.69141 41.5039 2.49023L41.5039-22.2656L37.7441-26.0254Z"/>
  </g>
  <g id="Ultralight-M" transform="matrix(1 0 0 1 522.236 1126)">
   <path d="M36.3281-43.1641L38.5742-40.918L38.5742-55.957C45.1172-56.4941 50.0977-61.9629 50.0977-68.5547C50.0977-75.5371 44.5312-81.25 37.4512-81.25C30.4199-81.25 24.8535-75.5371 24.8535-68.5547C24.8535-61.9629 29.834-56.4941 36.3281-55.957ZM33.3008-68.457C31.0059-68.457 29.0039-70.459 29.0039-72.8027C29.0039-75.1465 31.0059-77.0996 33.3008-77.0996C35.6445-77.0996 37.6465-75.1465 37.6465-72.8027C37.6465-70.459 35.6445-68.457 33.3008-68.457ZM65.4297-4.6875C65.918-4.19922 66.6992-4.19922 67.1387-4.6875C67.5781-5.07812 67.627-5.9082 67.1387-6.39648L9.57031-64.0137C9.22852-64.3555 8.30078-64.4531 7.86133-64.0137C7.37305-63.5254 7.37305-62.7441 7.86133-62.2559ZM36.3281 4.49219C36.3281 8.88672 36.9141 10.8887 37.4512 10.8887C37.9883 10.8887 38.5742 8.93555 38.5742 4.39453L38.5742-25.5371L36.3281-27.7832Z"/>
  </g>
  <g id="Black-S" transform="matrix(1 0 0 1 2893.51 696)">
   <path d="M33.6914-42.1875L46.0449-29.9316L46.0449-46.2891C53.4668-48.8281 58.7402-55.9082 58.7402-64.1602C58.7402-74.6094 50.3906-83.1055 39.8926-83.1055C29.4434-83.1055 21.0449-74.6094 21.0449-64.1602C21.0449-55.9082 26.3184-48.877 33.6914-46.2891ZM34.6191-62.9883C31.2012-62.9883 28.1738-66.0156 28.1738-69.4824C28.1738-72.998 31.2012-75.9277 34.6191-75.9277C38.1836-75.9277 41.0645-72.998 41.0645-69.4824C41.0645-66.0156 38.1836-62.9883 34.6191-62.9883ZM62.5977 5.07812C63.9648 6.44531 66.1621 6.44531 67.5293 5.07812C68.8965 3.71094 68.8477 1.46484 67.5293 0.146484L11.8164-55.6152C10.498-56.9336 8.20312-56.9824 6.83594-55.6152C5.51758-54.2969 5.51758-52.002 6.83594-50.6836ZM33.6914-7.61719C33.6914-1.75781 38.1348 5.85938 39.8926 5.85938C41.1621 5.85938 44.7266 0.927734 45.2637-2.7832L45.4102-3.75977L33.6914-15.4785Z"/>
  </g>
  <g id="Heavy-S" transform="matrix(1 0 0 1 2597.14 696)">
   <path d="M33.8379-42.8223L45.2148-31.4941L45.2148-46.7773C52.3926-49.1699 57.5684-55.957 57.5684-63.916C57.5684-73.877 49.5605-82.0312 39.5508-82.0312C29.541-82.0312 21.5332-73.877 21.5332-63.916C21.5332-55.957 26.6602-49.1699 33.8379-46.7773ZM34.5215-62.793C31.25-62.793 28.3691-65.6738 28.3691-68.9941C28.3691-72.3633 31.25-75.1465 34.5215-75.1465C37.8906-75.1465 40.6738-72.3633 40.6738-68.9941C40.6738-65.6738 37.8906-62.793 34.5215-62.793ZM62.4512 3.61328C63.7695 4.98047 65.9668 4.98047 67.334 3.61328C68.6523 2.24609 68.6523 0.0488281 67.334-1.26953L11.7676-56.8848C10.4492-58.2031 8.20312-58.2031 6.83594-56.8848C5.51758-55.5664 5.51758-53.2715 6.83594-51.9531ZM33.8379-9.42383C33.8379-1.9043 37.793 5.56641 39.5508 5.56641C40.918 5.56641 44.1895 0.341797 44.5801-5.0293L44.7266-6.15234L33.8379-17.041Z"/>
  </g>
  <g id="Bold-S" transform="matrix(1 0 0 1 2300.82 696)">
   <path d="M33.9844-43.5059L44.2871-33.252L44.2871-47.3145C51.2207-49.5117 56.2012-56.0059 56.2012-63.6719C56.2012-73.0957 48.6328-80.7617 39.1602-80.7617C29.6875-80.7617 22.0703-73.0957 22.0703-63.6719C22.0703-56.0059 27.0508-49.5117 33.9844-47.3145ZM34.375-62.5977C31.2988-62.5977 28.5645-65.332 28.5645-68.457C28.5645-71.6309 31.2988-74.3164 34.375-74.3164C37.5977-74.3164 40.1855-71.6309 40.1855-68.457C40.1855-65.332 37.5977-62.5977 34.375-62.5977ZM62.2559 1.95312C63.623 3.32031 65.7715 3.32031 67.0898 1.95312C68.4082 0.634766 68.4082-1.5625 67.0898-2.88086L11.7188-58.252C10.4004-59.5703 8.1543-59.6191 6.83594-58.252C5.51758-56.9824 5.51758-54.7363 6.83594-53.418ZM33.9844-11.4746C33.9844-2.09961 37.4023 5.27344 39.1602 5.27344C40.625 5.27344 43.6035-0.341797 43.8477-7.51953L43.9453-8.83789L33.9844-18.75Z"/>
  </g>
  <g id="Semibold-S" transform="matrix(1 0 0 1 2004.38 696)">
   <path d="M34.1309-43.9941L43.6035-34.4727L43.6035-47.7051C50.3906-49.707 55.3223-56.0547 55.3223-63.4766C55.3223-72.5586 47.998-79.9316 38.8672-79.9316C29.7852-79.9316 22.4609-72.5586 22.4609-63.4766C22.4609-56.0547 27.3438-49.7559 34.1309-47.7051ZM34.2773-62.4512C31.2988-62.4512 28.6621-65.0879 28.6621-68.1152C28.6621-71.1426 31.2988-73.7305 34.2773-73.7305C37.4023-73.7305 39.8926-71.1426 39.8926-68.1152C39.8926-65.0879 37.4023-62.4512 34.2773-62.4512ZM62.1094 0.830078C63.4766 2.14844 65.625 2.14844 66.9434 0.830078C68.2617-0.488281 68.2617-2.63672 66.9434-3.95508L11.6699-59.2285C10.3516-60.5469 8.1543-60.5469 6.78711-59.2285C5.51758-57.959 5.51758-55.7129 6.78711-54.4434ZM34.1309-12.8418C34.1309-2.24609 37.1094 5.0293 38.8672 5.0293C40.4297 5.0293 43.1641-0.78125 43.3594-9.27734L43.4082-10.6445L34.1309-19.9707Z"/>
  </g>
  <g id="Medium-S" transform="matrix(1 0 0 1 1707.86 696)">
   <path d="M34.1797-44.3359L43.1152-35.4004L43.1152-47.998C49.8047-49.9023 54.5898-56.0547 54.5898-63.3301C54.5898-72.1191 47.5098-79.2969 38.6719-79.2969C29.834-79.2969 22.7539-72.1191 22.7539-63.3301C22.7539-56.1035 27.5879-49.9512 34.1797-47.998ZM34.2285-62.3535C31.3477-62.3535 28.7598-64.8926 28.7598-67.8223C28.7598-70.8008 31.3477-73.291 34.2285-73.291C37.207-73.291 39.6484-70.8008 39.6484-67.8223C39.6484-64.8926 37.207-62.3535 34.2285-62.3535ZM62.0605 0C63.3789 1.31836 65.5273 1.31836 66.7969 0C68.1152-1.36719 68.1152-3.4668 66.7969-4.78516L11.6211-59.9609C10.3027-61.2793 8.1543-61.2793 6.78711-59.9609C5.51758-58.6914 5.51758-56.4453 6.78711-55.1758ZM34.1797-13.916C34.1797-2.29492 36.9141 4.88281 38.6719 4.88281C40.2832 4.88281 42.8711-1.17188 42.9688-10.5957L42.9688-12.0605L34.1797-20.8496Z"/>
  </g>
  <g id="Regular-S" transform="matrix(1 0 0 1 1411.42 696)">
   <path d="M34.2773-44.8242L42.4805-36.5723L42.4805-48.3398C48.9746-50.1465 53.7109-56.1035 53.7109-63.1348C53.7109-71.582 46.9238-78.4668 38.4277-78.4668C29.9316-78.4668 23.1445-71.582 23.1445-63.1348C23.1445-56.1035 27.832-50.1953 34.2773-48.3887ZM34.1309-62.207C31.3477-62.207 28.9062-64.6484 28.9062-67.4805C28.9062-70.3125 31.3477-72.7051 34.1309-72.7051C37.0117-72.7051 39.3555-70.3125 39.3555-67.4805C39.3555-64.6484 37.0117-62.207 34.1309-62.207ZM61.9141-1.12305C63.2324 0.195312 65.3809 0.195312 66.6504-1.12305C67.9199-2.44141 67.9688-4.58984 66.6504-5.9082L11.5723-60.8887C10.3027-62.207 8.10547-62.207 6.78711-60.8887C5.51758-59.6191 5.51758-57.4219 6.78711-56.1523ZM34.2773-15.2832C34.2773-2.44141 36.6211 4.6875 38.4277 4.6875C40.0391 4.6875 42.4316-1.61133 42.4316-12.3047L42.4316-13.8672L34.2773-22.0215Z"/>
  </g>
  <g id="Light-S" transform="matrix(1 0 0 1 1117.54 696)">
   <path d="M32.4707-43.7988L38.6719-37.5488L38.6719-49.2676C44.7266-50.6836 49.1699-56.1035 49.1699-62.5977C49.1699-70.0684 43.1152-76.2207 35.5957-76.2207C28.0273-76.2207 21.9727-70.0684 21.9727-62.5977C21.9727-56.1523 26.416-50.6836 32.4707-49.2676ZM31.5918-61.9141C29.1504-61.9141 26.9531-64.0625 26.9531-66.6016C26.9531-69.0918 29.1504-71.2402 31.5918-71.2402C34.1797-71.2402 36.2793-69.0918 36.2793-66.6016C36.2793-64.0625 34.1797-61.9141 31.5918-61.9141ZM58.5938-4.29688C59.6191-3.27148 61.2793-3.27148 62.2559-4.29688C63.2324-5.32227 63.2812-6.98242 62.2559-8.00781L10.3027-59.9121C9.32617-60.9375 7.61719-60.9375 6.5918-59.9121C5.56641-58.9355 5.56641-57.2266 6.5918-56.25ZM32.4707-11.8164C32.4707-1.9043 34.2285 3.51562 35.5957 3.51562C36.8164 3.51562 38.623-1.31836 38.623-9.76562L38.623-18.1641L32.4707-24.3164Z"/>
  </g>
  <g id="Thin-S" transform="matrix(1 0 0 1 824.586 696)">
   <path d="M30.0293-42.3828L33.5938-38.8184L33.5938-50.5859C39.0625-51.416 43.1641-56.1523 43.1641-61.8652C43.1641-68.1152 38.1348-73.2422 31.8359-73.2422C25.4883-73.2422 20.459-68.1152 20.459-61.8652C20.459-56.1523 24.5605-51.416 30.0293-50.5859ZM28.2715-61.5234C26.2207-61.5234 24.3652-63.3301 24.3652-65.4297C24.3652-67.5293 26.2207-69.3359 28.2715-69.3359C30.4199-69.3359 32.1777-67.5293 32.1777-65.4297C32.1777-63.3301 30.4199-61.5234 28.2715-61.5234ZM54.1504-8.49609C54.7852-7.86133 55.8105-7.86133 56.4453-8.49609C57.0312-9.08203 57.0801-10.1562 56.4453-10.791L8.59375-58.6426C8.05664-59.1797 6.93359-59.2773 6.29883-58.6426C5.66406-58.0078 5.66406-56.9824 6.29883-56.3477ZM30.0293-7.22656C30.0293-1.17188 31.0059 1.95312 31.8359 1.95312C32.5684 1.95312 33.5449-0.878906 33.5449-6.39648L33.5449-23.877L30.0293-27.3926Z"/>
  </g>
  <g id="Ultralight-S" transform="matrix(1 0 0 1 529.804 696)">
   <path d="M28.8086-41.6504L30.957-39.502L30.957-51.2695C36.1816-51.8066 40.0879-56.1523 40.0879-61.4746C40.0879-67.1387 35.5957-71.7285 29.8828-71.7285C24.1699-71.7285 19.6777-67.1387 19.6777-61.4746C19.6777-56.1523 23.6328-51.8066 28.8086-51.2695ZM26.5625-61.3281C24.707-61.3281 23.0469-62.9395 23.0469-64.8438C23.0469-66.748 24.707-68.3594 26.5625-68.3594C28.4668-68.3594 30.0781-66.748 30.0781-64.8438C30.0781-62.9395 28.4668-61.3281 26.5625-61.3281ZM51.9043-10.6445C52.3438-10.2051 53.0273-10.2051 53.4668-10.6445C53.8574-11.0352 53.9062-11.7676 53.4668-12.207L7.71484-57.959C7.37305-58.3008 6.5918-58.3984 6.15234-57.959C5.71289-57.5195 5.71289-56.8359 6.15234-56.3965ZM28.8086-4.83398C28.8086-0.78125 29.3945 1.17188 29.8828 1.17188C30.3711 1.17188 30.957-0.683594 30.957-4.6875L30.957-26.7578L28.8086-28.9551Z"/>
  </g>
 </g>
</svg>
