<?xml version="1.0" encoding="UTF-8"?>
<!--Generator: Apple Native CoreSVG 149-->
<!DOCTYPE svg
PUBLIC "-//W3C//DTD SVG 1.1//EN"
       "http://www.w3.org/Graphics/SVG/1.1/DTD/svg11.dtd">
<svg version="1.1" xmlns="http://www.w3.org/2000/svg" xmlns:xlink="http://www.w3.org/1999/xlink" width="3300" height="2200">
 <!--glyph: "uni100B32.medium", point size: 100.000000, font version: "Version 16.0d18e1", template writer version: "8"-->
 <g id="Notes">
  <rect height="2200" id="artboard" style="fill:white;opacity:1" width="3300" x="0" y="0"/>
  <line id="" style="fill:none;stroke:black;opacity:1;stroke-width:0.5;" x1="263" x2="3036" y1="292" y2="292"/>
  <text style="stroke:none;fill:black;font-family:-apple-system,&quot;SF Pro Display&quot;,&quot;SF Pro Text&quot;,Helvetica,sans-serif;font-weight:bold;" transform="matrix(1 0 0 1 263 322)">Weight/Scale Variations</text>
  <text style="stroke:none;fill:black;font-family:-apple-system,&quot;SF Pro Display&quot;,&quot;SF Pro Text&quot;,Helvetica,sans-serif;text-anchor:middle;" transform="matrix(1 0 0 1 559.711 322)">Ultralight</text>
  <text style="stroke:none;fill:black;font-family:-apple-system,&quot;SF Pro Display&quot;,&quot;SF Pro Text&quot;,Helvetica,sans-serif;text-anchor:middle;" transform="matrix(1 0 0 1 856.422 322)">Thin</text>
  <text style="stroke:none;fill:black;font-family:-apple-system,&quot;SF Pro Display&quot;,&quot;SF Pro Text&quot;,Helvetica,sans-serif;text-anchor:middle;" transform="matrix(1 0 0 1 1153.13 322)">Light</text>
  <text style="stroke:none;fill:black;font-family:-apple-system,&quot;SF Pro Display&quot;,&quot;SF Pro Text&quot;,Helvetica,sans-serif;text-anchor:middle;" transform="matrix(1 0 0 1 1449.84 322)">Regular</text>
  <text style="stroke:none;fill:black;font-family:-apple-system,&quot;SF Pro Display&quot;,&quot;SF Pro Text&quot;,Helvetica,sans-serif;text-anchor:middle;" transform="matrix(1 0 0 1 1746.56 322)">Medium</text>
  <text style="stroke:none;fill:black;font-family:-apple-system,&quot;SF Pro Display&quot;,&quot;SF Pro Text&quot;,Helvetica,sans-serif;text-anchor:middle;" transform="matrix(1 0 0 1 2043.27 322)">Semibold</text>
  <text style="stroke:none;fill:black;font-family:-apple-system,&quot;SF Pro Display&quot;,&quot;SF Pro Text&quot;,Helvetica,sans-serif;text-anchor:middle;" transform="matrix(1 0 0 1 2339.98 322)">Bold</text>
  <text style="stroke:none;fill:black;font-family:-apple-system,&quot;SF Pro Display&quot;,&quot;SF Pro Text&quot;,Helvetica,sans-serif;text-anchor:middle;" transform="matrix(1 0 0 1 2636.69 322)">Heavy</text>
  <text style="stroke:none;fill:black;font-family:-apple-system,&quot;SF Pro Display&quot;,&quot;SF Pro Text&quot;,Helvetica,sans-serif;text-anchor:middle;" transform="matrix(1 0 0 1 2933.4 322)">Black</text>
  <line id="" style="fill:none;stroke:black;opacity:1;stroke-width:0.5;" x1="263" x2="3036" y1="1903" y2="1903"/>
  <g id="" transform="matrix(1 0 0 1 263 1933)">
   <path d="M9.24805 0.830078C13.5547 0.830078 17.1387-2.74414 17.1387-7.05078C17.1387-11.3574 13.5449-14.9316 9.23828-14.9316C4.94141-14.9316 1.36719-11.3574 1.36719-7.05078C1.36719-2.74414 4.95117 0.830078 9.24805 0.830078ZM9.24805-0.654297C5.70312-0.654297 2.87109-3.49609 2.87109-7.05078C2.87109-10.6055 5.69336-13.4473 9.23828-13.4473C12.793-13.4473 15.6348-10.6055 15.6445-7.05078C15.6543-3.49609 12.8027-0.654297 9.24805-0.654297ZM6.39648-6.31836L8.50586-6.31836L8.50586-4.19922C8.50586-3.75977 8.79883-3.45703 9.22852-3.45703C9.67773-3.45703 9.9707-3.75977 9.9707-4.19922L9.9707-6.31836L12.0996-6.31836C12.5391-6.31836 12.8418-6.61133 12.8418-7.04102C12.8418-7.48047 12.5391-7.7832 12.0996-7.7832L9.9707-7.7832L9.9707-9.89258C9.9707-10.3418 9.67773-10.6445 9.22852-10.6445C8.79883-10.6445 8.50586-10.3418 8.50586-9.89258L8.50586-7.7832L6.39648-7.7832C5.94727-7.7832 5.64453-7.48047 5.64453-7.04102C5.64453-6.61133 5.94727-6.31836 6.39648-6.31836Z"/>
  </g>
  <g id="" transform="matrix(1 0 0 1 281.506 1933)">
   <path d="M11.709 2.91016C17.1582 2.91016 21.6699-1.61133 21.6699-7.05078C21.6699-12.5 17.1484-17.0117 11.6992-17.0117C6.25977-17.0117 1.74805-12.5 1.74805-7.05078C1.74805-1.61133 6.26953 2.91016 11.709 2.91016ZM11.709 1.25C7.09961 1.25 3.41797-2.44141 3.41797-7.05078C3.41797-11.6602 7.08984-15.3516 11.6992-15.3516C16.3086-15.3516 20-11.6602 20.0098-7.05078C20.0195-2.44141 16.3184 1.25 11.709 1.25ZM7.98828-6.23047L10.8789-6.23047L10.8789-3.32031C10.8789-2.83203 11.2109-2.5 11.6895-2.5C12.1777-2.5 12.5195-2.83203 12.5195-3.32031L12.5195-6.23047L15.4297-6.23047C15.918-6.23047 16.25-6.5625 16.25-7.04102C16.25-7.5293 15.918-7.87109 15.4297-7.87109L12.5195-7.87109L12.5195-10.7617C12.5195-11.2695 12.1777-11.6016 11.6895-11.6016C11.2109-11.6016 10.8789-11.2598 10.8789-10.7617L10.8789-7.87109L7.98828-7.87109C7.48047-7.87109 7.14844-7.5293 7.14844-7.04102C7.14844-6.5625 7.49023-6.23047 7.98828-6.23047Z"/>
  </g>
  <g id="" transform="matrix(1 0 0 1 304.924 1933)">
   <path d="M14.9707 5.66406C21.9336 5.66406 27.6953-0.0976562 27.6953-7.05078C27.6953-14.0137 21.9238-19.7754 14.9609-19.7754C8.00781-19.7754 2.25586-14.0137 2.25586-7.05078C2.25586-0.0976562 8.01758 5.66406 14.9707 5.66406ZM14.9707 3.84766C8.93555 3.84766 4.08203-1.01562 4.08203-7.05078C4.08203-13.0957 8.92578-17.9492 14.9609-17.9492C21.0059-17.9492 25.8594-13.0957 25.8691-7.05078C25.8789-1.01562 21.0156 3.84766 14.9707 3.84766ZM10.0586-6.14258L14.0625-6.14258L14.0625-2.12891C14.0625-1.5918 14.4336-1.2207 14.9512-1.2207C15.4883-1.2207 15.8594-1.5918 15.8594-2.12891L15.8594-6.14258L19.8828-6.14258C20.4102-6.14258 20.791-6.51367 20.791-7.03125C20.791-7.56836 20.4199-7.94922 19.8828-7.94922L15.8594-7.94922L15.8594-11.9531C15.8594-12.5098 15.4883-12.8809 14.9512-12.8809C14.4336-12.8809 14.0625-12.5 14.0625-11.9531L14.0625-7.94922L10.0586-7.94922C9.50195-7.94922 9.13086-7.56836 9.13086-7.03125C9.13086-6.51367 9.51172-6.14258 10.0586-6.14258Z"/>
  </g>
  <text style="stroke:none;fill:black;font-family:-apple-system,&quot;SF Pro Display&quot;,&quot;SF Pro Text&quot;,Helvetica,sans-serif;font-weight:bold;" transform="matrix(1 0 0 1 263 1953)">Design Variations</text>
  <text style="stroke:none;fill:black;font-family:-apple-system,&quot;SF Pro Display&quot;,&quot;SF Pro Text&quot;,Helvetica,sans-serif;" transform="matrix(1 0 0 1 263 1971)">Symbols are supported in up to nine weights and three scales.</text>
  <text style="stroke:none;fill:black;font-family:-apple-system,&quot;SF Pro Display&quot;,&quot;SF Pro Text&quot;,Helvetica,sans-serif;" transform="matrix(1 0 0 1 263 1989)">For optimal layout with text and other symbols, vertically align</text>
  <text style="stroke:none;fill:black;font-family:-apple-system,&quot;SF Pro Display&quot;,&quot;SF Pro Text&quot;,Helvetica,sans-serif;" transform="matrix(1 0 0 1 263 2007)">symbols with the adjacent text.</text>
  <line id="" style="fill:none;stroke:#00AEEF;stroke-width:0.5;opacity:1.0;" x1="776" x2="776" y1="1919" y2="1933"/>
  <g id="" transform="matrix(1 0 0 1 776 1933)">
   <path d="M3.31055 0.126953C3.82812 0.126953 4.08203-0.0683594 4.26758-0.605469L5.52734-4.0625L11.2891-4.0625L12.5488-0.605469C12.7344-0.0683594 12.9883 0.126953 13.4961 0.126953C14.0137 0.126953 14.3457-0.185547 14.3457-0.673828C14.3457-0.839844 14.3164-0.986328 14.2383-1.20117L9.6582-13.3887C9.43359-13.9941 9.0332-14.2871 8.4082-14.2871C7.80273-14.2871 7.39258-13.9941 7.17773-13.3984L2.59766-1.19141C2.51953-0.976562 2.49023-0.830078 2.49023-0.664062C2.49023-0.175781 2.80273 0.126953 3.31055 0.126953ZM6.00586-5.53711L8.37891-12.1094L8.42773-12.1094L10.8008-5.53711Z"/>
  </g>
  <line id="" style="fill:none;stroke:#00AEEF;stroke-width:0.5;opacity:1.0;" x1="792.836" x2="792.836" y1="1919" y2="1933"/>
  <text style="stroke:none;fill:black;font-family:-apple-system,&quot;SF Pro Display&quot;,&quot;SF Pro Text&quot;,Helvetica,sans-serif;font-weight:bold;" transform="matrix(1 0 0 1 776 1953)">Margins</text>
  <text style="stroke:none;fill:black;font-family:-apple-system,&quot;SF Pro Display&quot;,&quot;SF Pro Text&quot;,Helvetica,sans-serif;" transform="matrix(1 0 0 1 776 1971)">Leading and trailing margins on the left and right side of each symbol</text>
  <text style="stroke:none;fill:black;font-family:-apple-system,&quot;SF Pro Display&quot;,&quot;SF Pro Text&quot;,Helvetica,sans-serif;" transform="matrix(1 0 0 1 776 1989)">can be adjusted by modifying the x-location of the margin guidelines.</text>
  <text style="stroke:none;fill:black;font-family:-apple-system,&quot;SF Pro Display&quot;,&quot;SF Pro Text&quot;,Helvetica,sans-serif;" transform="matrix(1 0 0 1 776 2007)">Modifications are automatically applied proportionally to all</text>
  <text style="stroke:none;fill:black;font-family:-apple-system,&quot;SF Pro Display&quot;,&quot;SF Pro Text&quot;,Helvetica,sans-serif;" transform="matrix(1 0 0 1 776 2025)">scales and weights.</text>
  <g id="" transform="matrix(1 0 0 1 1289 1933)">
   <path d="M2.8418 1.86523L4.54102 3.57422C5.40039 4.44336 6.38672 4.38477 7.31445 3.35938L17.4902-7.85156C17.7539-7.76367 18.0273-7.7832 18.3398-7.8418L19.4043-8.03711L20.0684-7.36328L20.0293-6.80664C19.9902-6.30859 20.1172-5.92773 20.6055-5.44922L21.3672-4.70703C21.8457-4.22852 22.4609-4.19922 22.9297-4.66797L25.8398-7.58789C26.3086-8.05664 26.2891-8.65234 25.8105-9.13086L25.0391-9.89258C24.5605-10.3711 24.1895-10.5273 23.7109-10.4883L23.1348-10.4395L22.4902-11.0742L22.7344-12.1973C22.8613-12.7637 22.7051-13.2031 22.1191-13.7891L19.9219-15.9766C16.582-19.2969 12.1484-19.2188 9.25781-16.3281C8.83789-15.918 8.80859-15.3418 9.04297-14.9512C9.27734-14.5898 9.73633-14.3555 10.3809-14.5215C11.8457-14.8633 13.3691-14.9219 14.7949-13.9844L14.209-12.5293C14.0137-12.0508 13.9844-11.6504 14.1113-11.2891L3.04688-0.898438C2.06055 0.0195312 1.98242 0.996094 2.8418 1.86523ZM10.752-15.957C13.1836-17.7344 16.4746-17.4316 18.7012-15.2051L21.1328-12.793C21.3672-12.5586 21.4062-12.373 21.3379-12.0312L21.0156-10.5469L22.5195-9.0625L23.5059-9.12109C23.7598-9.13086 23.8379-9.11133 24.0332-8.91602L24.6094-8.33984L22.168-5.89844L21.5918-6.47461C21.3965-6.66992 21.3672-6.74805 21.377-7.01172L21.4453-7.98828L19.9512-9.47266L18.4277-9.21875C18.1055-9.15039 17.959-9.17969 17.7148-9.41406L15.7129-11.416C15.459-11.6504 15.4297-11.8164 15.5859-12.1875L16.4648-14.2773C14.9023-15.7324 12.8711-16.3574 10.8398-15.7617C10.6836-15.7227 10.625-15.8496 10.752-15.957ZM5.27344 2.30469L4.10156 1.14258C3.63281 0.683594 3.74023 0.341797 4.14062-0.0195312L14.9512-10.1953L16.416-8.71094L6.42578 2.27539C6.07422 2.67578 5.74219 2.77344 5.27344 2.30469Z"/>
  </g>
  <text style="stroke:none;fill:black;font-family:-apple-system,&quot;SF Pro Display&quot;,&quot;SF Pro Text&quot;,Helvetica,sans-serif;font-weight:bold;" transform="matrix(1 0 0 1 1289 1953)">Exporting</text>
  <text style="stroke:none;fill:black;font-family:-apple-system,&quot;SF Pro Display&quot;,&quot;SF Pro Text&quot;,Helvetica,sans-serif;" transform="matrix(1 0 0 1 1289 1971)">Symbols should be outlined when exporting to ensure the</text>
  <text style="stroke:none;fill:black;font-family:-apple-system,&quot;SF Pro Display&quot;,&quot;SF Pro Text&quot;,Helvetica,sans-serif;" transform="matrix(1 0 0 1 1289 1989)">design is preserved when submitting to Xcode.</text>
  <text id="template-version" style="stroke:none;fill:black;font-family:-apple-system,&quot;SF Pro Display&quot;,&quot;SF Pro Text&quot;,Helvetica,sans-serif;text-anchor:end;" transform="matrix(1 0 0 1 3036 1933)">Template v.2.0</text>
  <text style="stroke:none;fill:black;font-family:-apple-system,&quot;SF Pro Display&quot;,&quot;SF Pro Text&quot;,Helvetica,sans-serif;text-anchor:end;" transform="matrix(1 0 0 1 3036 1951)">Requires Xcode 12 or greater</text>
  <text style="stroke:none;fill:black;font-family:-apple-system,&quot;SF Pro Display&quot;,&quot;SF Pro Text&quot;,Helvetica,sans-serif;text-anchor:end;" transform="matrix(1 0 0 1 3036 1969)">Generated from megaphone</text>
  <text style="stroke:none;fill:black;font-family:-apple-system,&quot;SF Pro Display&quot;,&quot;SF Pro Text&quot;,Helvetica,sans-serif;text-anchor:end;" transform="matrix(1 0 0 1 3036 1987)">Typeset at 100 points</text>
  <text style="stroke:none;fill:black;font-family:-apple-system,&quot;SF Pro Display&quot;,&quot;SF Pro Text&quot;,Helvetica,sans-serif;" transform="matrix(1 0 0 1 263 726)">Small</text>
  <text style="stroke:none;fill:black;font-family:-apple-system,&quot;SF Pro Display&quot;,&quot;SF Pro Text&quot;,Helvetica,sans-serif;" transform="matrix(1 0 0 1 263 1156)">Medium</text>
  <text style="stroke:none;fill:black;font-family:-apple-system,&quot;SF Pro Display&quot;,&quot;SF Pro Text&quot;,Helvetica,sans-serif;" transform="matrix(1 0 0 1 263 1586)">Large</text>
 </g>
 <g id="Guides">
  <g id="H-reference" style="fill:#27AAE1;stroke:none;" transform="matrix(1 0 0 1 339 696)">
   <path d="M0.976562 0L3.66211 0L12.9883-24.4629L45.752-24.4629L55.127 0L57.7637 0L30.6152-70.459L28.125-70.459ZM29.3457-67.1387L29.4434-67.1387L44.873-26.709L13.8672-26.709Z"/>
  </g>
  <line id="Baseline-S" style="fill:none;stroke:#27AAE1;opacity:1;stroke-width:0.5;" x1="263" x2="3036" y1="696" y2="696"/>
  <line id="Capline-S" style="fill:none;stroke:#27AAE1;opacity:1;stroke-width:0.5;" x1="263" x2="3036" y1="625.541" y2="625.541"/>
  <g id="H-reference" style="fill:#27AAE1;stroke:none;" transform="matrix(1 0 0 1 339 1126)">
   <path d="M0.976562 0L3.66211 0L12.9883-24.4629L45.752-24.4629L55.127 0L57.7637 0L30.6152-70.459L28.125-70.459ZM29.3457-67.1387L29.4434-67.1387L44.873-26.709L13.8672-26.709Z"/>
  </g>
  <line id="Baseline-M" style="fill:none;stroke:#27AAE1;opacity:1;stroke-width:0.5;" x1="263" x2="3036" y1="1126" y2="1126"/>
  <line id="Capline-M" style="fill:none;stroke:#27AAE1;opacity:1;stroke-width:0.5;" x1="263" x2="3036" y1="1055.54" y2="1055.54"/>
  <g id="H-reference" style="fill:#27AAE1;stroke:none;" transform="matrix(1 0 0 1 339 1556)">
   <path d="M0.976562 0L3.66211 0L12.9883-24.4629L45.752-24.4629L55.127 0L57.7637 0L30.6152-70.459L28.125-70.459ZM29.3457-67.1387L29.4434-67.1387L44.873-26.709L13.8672-26.709Z"/>
  </g>
  <line id="Baseline-L" style="fill:none;stroke:#27AAE1;opacity:1;stroke-width:0.5;" x1="263" x2="3036" y1="1556" y2="1556"/>
  <line id="Capline-L" style="fill:none;stroke:#27AAE1;opacity:1;stroke-width:0.5;" x1="263" x2="3036" y1="1485.54" y2="1485.54"/>
  <line id="left-margin" style="fill:none;stroke:#00AEEF;stroke-width:0.5;opacity:1.0;" x1="1380.92" x2="1380.92" y1="1030.79" y2="1150.12"/>
  <line id="right-margin" style="fill:none;stroke:#00AEEF;stroke-width:0.5;opacity:1.0;" x1="1518.77" x2="1518.77" y1="1030.79" y2="1150.12"/>
 </g>
 <g id="Symbols">
  <g id="Black-L" transform="matrix(1 0 0 1 2836.55 1556)">
   <path d="M16.0645-36.377C16.0645-19.6777 24.2188-9.17969 39.1113-6.29883L52.8809 24.3652C57.0312 33.5449 63.2812 38.1836 72.0703 38.1836C84.2285 38.1836 93.0664 29.1016 90.625 16.6504L86.9629-2.53906C104.004 1.41602 120.996 8.20312 138.135 17.8711C141.943 23.6328 148.535 27.3926 156.152 27.3926C168.213 27.3926 177.637 17.9688 177.637 5.9082L177.637-88.0859C177.637-100.195 168.213-109.57 156.152-109.57C148.193-109.57 141.406-105.518 137.695-99.3164C117.188-87.2559 91.3574-78.4668 70.6055-76.1719L48.0957-76.1719C27.5391-76.1719 16.0645-65.0391 16.0645-45.2637ZM152.539 5.9082L152.539-88.0859C152.539-90.1367 154.102-91.6992 156.152-91.6992C158.154-91.6992 159.717-90.1367 159.717-88.0859L159.717 5.9082C159.717 7.95898 158.154 9.47266 156.152 9.47266C154.102 9.47266 152.539 7.95898 152.539 5.9082ZM75.1465-22.7539L75.1465-58.9355C96.2402-61.7676 115.967-68.0664 134.668-77.832L134.668-3.80859C115.723-13.7207 96.2402-19.9219 75.1465-22.7539ZM48.0957-23.3887C37.4512-23.3887 33.9844-26.6602 33.9844-36.377L33.9844-45.2637C33.9844-54.9805 37.4512-58.252 48.0957-58.252L57.2266-58.252L57.2266-23.3887ZM69.7754 19.1895L58.1055-5.46875L69.1406-5.46875L73.877 18.6035C74.1699 20.1172 73.4375 21.0449 72.0703 21.0449C70.9473 21.0449 70.4102 20.459 69.7754 19.1895Z"/>
  </g>
  <g id="Heavy-L" transform="matrix(1 0 0 1 2542.16 1556)">
   <path d="M16.0645-36.1816C16.0645-19.873 24.1211-9.81445 38.8672-7.27539L52.7832 23.584C56.7383 32.4219 62.5977 36.8164 70.9473 36.8164C82.2754 36.8164 90.4785 28.3691 88.1836 16.4062L84.2285-4.10156C101.514-0.341797 118.75 6.25 135.498 15.8203C138.818 22.0703 145.312 26.1719 153.125 26.1719C164.453 26.1719 172.998 17.5781 172.998 6.29883L172.998-88.3301C172.998-99.6094 164.453-108.203 153.125-108.203C145.02-108.203 138.33-103.809 135.205-97.2168C115.234-85.4004 89.7949-77.0996 69.3848-74.8535L46.6309-74.8535C26.9531-74.8535 16.0645-64.3066 16.0645-45.3125ZM148.926 6.29883L148.926-88.3301C148.926-90.7227 150.684-92.4805 153.125-92.4805C155.518-92.4805 157.275-90.7227 157.275-88.3301L157.275 6.29883C157.275 8.69141 155.518 10.4492 153.125 10.4492C150.684 10.4492 148.926 8.69141 148.926 6.29883ZM73.0469-21.875L73.0469-59.7168C94.4824-62.4512 114.697-68.7012 133.203-78.7109L133.203-2.7832C114.453-12.9395 94.4336-19.1406 73.0469-21.875ZM46.6309-22.4121C35.6934-22.4121 31.7871-26.0742 31.7871-36.1816L31.7871-45.3125C31.7871-55.4688 35.6934-59.1309 46.6309-59.1309L57.3242-59.1309L57.3242-22.4121ZM67.5781 19.1406L55.4199-6.68945L68.6523-6.68945L73.5352 18.2129C73.9746 20.459 72.8027 21.8262 70.8984 21.8262C69.2871 21.8262 68.457 20.9473 67.5781 19.1406Z"/>
  </g>
  <g id="Bold-L" transform="matrix(1 0 0 1 2248.01 1556)">
   <path d="M16.0645-35.9375C16.0645-20.1172 23.9258-10.498 38.5742-8.44727L52.6367 22.7539C56.4453 31.1523 61.8164 35.2539 69.6777 35.2539C80.0781 35.2539 87.6465 27.5879 85.4004 16.1133L81.2012-5.81055C98.8281-2.29492 116.553 4.19922 132.91 13.7695C135.498 20.459 141.846 24.8047 149.756 24.8047C160.205 24.8047 167.871 17.1875 167.871 6.68945L167.871-88.5254C167.871-99.0234 160.205-106.641 149.756-106.641C141.602-106.641 135.156-102.002 132.715-95.0195C113.33-83.3984 88.1836-75.5859 67.9688-73.3887L45.0195-73.3887C26.2695-73.3887 16.0645-63.4766 16.0645-45.4102ZM144.922 6.68945L144.922-88.5254C144.922-91.4062 146.875-93.3594 149.756-93.3594C152.588-93.3594 154.59-91.4062 154.59-88.5254L154.59 6.68945C154.59 9.57031 152.588 11.5723 149.756 11.5723C146.875 11.5723 144.922 9.57031 144.922 6.68945ZM70.7031-20.8984L70.7031-60.5469C92.4805-63.2324 113.33-69.4336 131.641-79.7363L131.641-1.66016C113.037-12.1094 92.3828-18.2129 70.7031-20.8984ZM45.0195-21.2891C33.6914-21.2891 29.3457-25.3906 29.3457-35.9375L29.3457-45.4102C29.3457-56.0059 33.6914-60.1074 45.0195-60.1074L57.4219-60.1074L57.4219-21.2891ZM65.1367 19.043L52.4414-8.00781L67.5781-8.00781C67.7734-7.95898 67.9199-7.95898 68.1152-7.91016L73.1445 17.7246C73.7793 20.8008 72.0703 22.6562 69.5801 22.6562C67.3828 22.6562 66.2598 21.5332 65.1367 19.043Z"/>
  </g>
  <g id="Semibold-L" transform="matrix(1 0 0 1 1953.08 1556)">
   <path d="M16.0645-35.791C16.0645-20.2637 23.8281-11.0352 38.3301-9.22852L52.5391 22.168C56.2012 30.2734 61.2305 34.1797 68.7988 34.1797C78.5645 34.1797 85.6445 27.0508 83.4961 15.918L79.1016-6.98242C97.0215-3.61328 115.186 2.83203 131.299 12.4512C133.398 19.3848 139.502 23.877 147.412 23.877C157.275 23.877 164.307 16.8945 164.307 6.98242L164.307-88.7207C164.307-98.584 157.275-105.566 147.412-105.566C139.307-105.566 133.105-100.83 131.152-93.6523C112.207-82.0801 87.1094-74.5605 67.041-72.4121L43.8965-72.4121C25.8301-72.4121 16.0645-62.9395 16.0645-45.5078ZM142.139 6.98242L142.139-88.7207C142.139-91.8457 144.287-93.9941 147.412-93.9941C150.537-93.9941 152.734-91.8457 152.734-88.7207L152.734 6.98242C152.734 10.1562 150.537 12.3047 147.412 12.3047C144.287 12.3047 142.139 10.1562 142.139 6.98242ZM69.0918-20.2148L69.0918-61.1816C91.1133-63.7695 112.451-69.9707 130.518-80.4688L130.518-0.830078C112.109-11.5234 91.0156-17.5781 69.0918-20.2148ZM43.8965-20.5078C32.373-20.5078 27.6367-24.9023 27.6367-35.791L27.6367-45.5078C27.6367-56.3965 32.373-60.791 43.8965-60.791L57.4707-60.791L57.4707-20.5078ZM63.4277 18.9941L50.3906-8.88672L66.6992-8.88672C67.041-8.83789 67.3828-8.83789 67.7246-8.78906L72.9004 17.4316C73.6328 20.9961 71.5332 23.2422 68.6523 23.2422C66.1133 23.2422 64.7949 21.9238 63.4277 18.9941Z"/>
  </g>
  <g id="Medium-L" transform="matrix(1 0 0 1 1657.71 1556)">
   <path d="M16.0645-35.6934C16.0645-20.3613 23.7305-11.4258 38.1836-9.86328L52.4902 21.7285C56.0059 29.5898 60.8398 33.3496 68.1152 33.3496C77.4414 33.3496 84.1797 26.6113 82.0801 15.8203L77.5391-7.86133C95.6543-4.54102 114.209 1.80664 130.176 11.5234C131.836 18.5547 137.744 23.1934 145.654 23.1934C155.078 23.1934 161.621 16.6504 161.621 7.22656L161.621-88.8184C161.621-98.2422 155.078-104.785 145.654-104.785C137.549-104.785 131.592-99.9512 130.078-92.6758C111.377-81.0547 86.3281-73.7793 66.3086-71.6309L43.0176-71.6309C25.4883-71.6309 16.0645-62.5 16.0645-45.5566ZM139.99 7.22656L139.99-88.8184C139.99-92.1875 142.285-94.4824 145.654-94.4824C149.023-94.4824 151.27-92.1875 151.27-88.8184L151.27 7.22656C151.27 10.5957 149.023 12.8906 145.654 12.8906C142.285 12.8906 139.99 10.5957 139.99 7.22656ZM67.8711-19.6777L67.8711-61.6211C90.0879-64.209 111.768-70.3613 129.688-81.0059L129.688-0.195312C111.475-11.084 89.9414-17.0898 67.8711-19.6777ZM43.0176-19.9219C31.2988-19.9219 26.3672-24.5605 26.3672-35.6934L26.3672-45.5566C26.3672-56.6406 31.2988-61.3281 43.0176-61.3281L57.5684-61.3281L57.5684-19.9219ZM62.1582 18.9453L48.8281-9.57031L65.9668-9.57031C66.4551-9.52148 66.9434-9.47266 67.4805-9.42383L72.7051 17.1875C73.4863 21.1914 71.1914 23.6816 67.9688 23.6816C65.1367 23.6816 63.623 22.2168 62.1582 18.9453Z"/>
  </g>
  <g id="Regular-L" transform="matrix(1 0 0 1 1362.76 1556)">
   <path d="M16.0645-35.5469C16.0645-20.5566 23.6328-11.9629 37.9395-10.6445L52.3926 21.1426C55.8105 28.7598 60.3027 32.3242 67.2363 32.3242C75.9277 32.3242 82.2266 26.0742 80.1758 15.625L75.4883-8.98438C93.9941-5.81055 113.086 0.537109 128.809 10.3516C129.932 17.627 135.498 22.2656 143.359 22.2656C152.197 22.2656 158.105 16.3574 158.105 7.51953L158.105-88.9648C158.105-97.8027 152.197-103.711 143.359-103.711C135.352-103.711 129.736-98.877 128.76-91.4062C110.449-79.7852 85.3516-72.7539 65.3809-70.6543L41.9434-70.6543C25-70.6543 16.0645-61.9141 16.0645-45.6055ZM137.256 7.51953L137.256-88.9648C137.256-92.627 139.697-95.0684 143.359-95.0684C147.021-95.0684 149.463-92.627 149.463-88.9648L149.463 7.51953C149.463 11.1816 147.021 13.623 143.359 13.623C139.697 13.623 137.256 11.1816 137.256 7.51953ZM66.2598-18.9941L66.2598-62.207C88.7207-64.7461 110.938-70.8496 128.613-81.7383L128.613 0.634766C110.596-10.498 88.5254-16.4551 66.2598-18.9941ZM41.9434-19.1406C29.9805-19.1406 24.707-24.1211 24.707-35.5469L24.707-45.6055C24.707-57.0312 29.9805-62.0117 41.9434-62.0117L57.6172-62.0117L57.6172-19.1406ZM60.498 18.8965L46.8262-10.498L65.0879-10.498C65.7715-10.4004 66.4062-10.3516 67.0898-10.2539L72.4609 16.8945C73.3398 21.4355 70.7031 24.2188 67.0898 24.2188C63.8672 24.2188 62.1582 22.6074 60.498 18.8965Z"/>
  </g>
  <g id="Light-L" transform="matrix(1 0 0 1 1068.56 1556)">
   <path d="M16.0645-35.0098C16.0645-20.5566 23.5352-12.5 37.7441-11.7676L52.1973 20.0195C55.5176 27.2949 59.6191 30.5664 66.1133 30.5664C74.1699 30.5664 80.0293 24.707 78.125 14.6973L73.291-10.4492C92.2852-7.42188 112.451-1.12305 127.1 9.0332C127.344 16.5039 132.471 21.4844 140.088 21.4844C147.852 21.4844 153.076 16.2598 153.076 8.49609L153.076-89.502C153.076-97.2656 147.852-102.49 140.088-102.49C132.422-102.49 127.246-97.4609 127.1-89.8438C110.156-77.9785 84.4238-71.2402 63.916-69.1406L39.9902-69.1406C24.3164-69.1406 16.0645-61.0352 16.0645-45.8496ZM133.691 8.49609L133.691-89.502C133.691-93.3105 136.23-95.8496 140.088-95.8496C143.896-95.8496 146.436-93.3105 146.436-89.502L146.436 8.49609C146.436 12.3047 143.896 14.8438 140.088 14.8438C136.23 14.8438 133.691 12.3047 133.691 8.49609ZM64.4531-18.2617L64.4531-62.6465C86.9141-65.0879 110.352-70.8984 127.1-82.373L127.1 1.5625C110.156-10.0586 86.8164-15.7715 64.4531-18.2617ZM39.9902-18.3594C28.2227-18.3594 22.7051-23.6816 22.7051-35.0098L22.7051-45.8496C22.7051-57.1777 28.2227-62.5 39.9902-62.5L57.8125-62.5L57.8125-18.3594ZM58.4961 18.457L44.6289-11.7188L63.7207-11.7188C64.7461-11.6211 65.8203-11.4746 66.8945-11.377L72.2168 15.7715C73.291 21.1914 70.0195 24.4141 66.0156 24.4141C62.3535 24.4141 60.3516 22.6074 58.4961 18.457Z"/>
  </g>
  <g id="Thin-L" transform="matrix(1 0 0 1 775.172 1556)">
   <path d="M16.0645-34.3262C16.0645-20.6055 23.3887-13.3789 37.4023-13.3789L37.5-13.3789L52.002 18.457C55.1758 25.3906 58.7402 28.2227 64.6484 28.2227C71.7773 28.2227 77.1484 22.9492 75.3418 13.4766L70.459-12.3047C90.1855-9.47266 112.012-3.22266 125.098 7.51953L125.098 9.76562C125.098 16.1621 129.346 20.4102 135.742 20.4102C142.139 20.4102 146.436 16.1621 146.436 9.76562L146.436-90.1855C146.436-96.582 142.139-100.83 135.742-100.83C129.346-100.83 125.098-96.582 125.098-90.1855L125.098-87.9883C110.107-75.6348 83.3984-69.1895 61.9629-67.0898L37.4023-67.0898C23.3887-67.0898 16.0645-59.8633 16.0645-46.1426ZM129.004 9.76562L129.004-90.1855C129.004-94.2383 131.689-96.9238 135.742-96.9238C139.795-96.9238 142.48-94.2383 142.48-90.1855L142.48 9.76562C142.48 13.7695 139.795 16.5039 135.742 16.5039C131.689 16.5039 129.004 13.7695 129.004 9.76562ZM62.0605-17.2852L62.0605-63.1836C84.2773-65.4785 109.717-70.9473 125.098-83.3008L125.098 2.83203C109.717-9.47266 84.4727-14.8926 62.0605-17.2852ZM37.4023-17.2852C25.8301-17.2852 19.9707-23.0469 19.9707-34.3262L19.9707-46.1426C19.9707-57.4219 25.8301-63.1836 37.4023-63.1836L58.1055-63.1836L58.1055-17.2852ZM55.8594 17.8711L41.6992-13.3789L61.9141-13.3789C63.4277-13.2324 65.0391-13.0371 66.6016-12.8418L71.875 14.2578C73.1934 20.8496 69.1406 24.6582 64.5996 24.6582C60.4004 24.6582 57.959 22.6074 55.8594 17.8711Z"/>
  </g>
  <g id="Ultralight-L" transform="matrix(1 0 0 1 480.17 1556)">
   <path d="M16.0645-33.9844C16.0645-20.9961 22.9004-14.209 36.084-14.209L37.3047-14.209L51.8555 17.6758C54.9805 24.4141 58.3008 27.0508 63.8672 27.0508C70.5566 27.0508 75.6836 22.0215 73.9258 12.8418L68.9453-13.2812C89.0625-10.5469 111.865-4.29688 124.072 6.83594L124.072 10.4004C124.072 16.0645 127.832 19.873 133.545 19.873C139.209 19.873 143.018 16.0645 143.018 10.4004L143.018-90.5273C143.018-96.1914 139.209-100 133.545-100C127.832-100 124.072-96.1914 124.072-90.5273L124.072-87.0605C110.156-74.4629 82.8613-68.1641 60.9375-66.0645L36.084-66.0645C22.9004-66.0645 16.0645-59.2773 16.0645-46.2891ZM126.611 10.4004L126.611-90.5273C126.611-94.6777 129.395-97.4609 133.545-97.4609C137.695-97.4609 140.479-94.6777 140.479-90.5273L140.479 10.4004C140.479 14.5508 137.695 17.334 133.545 17.334C129.395 17.334 126.611 14.5508 126.611 10.4004ZM60.9863-16.748L60.8398-16.748L60.8398-63.4766L61.084-63.4766C83.3984-65.8203 109.619-71.0938 124.072-83.7891L124.072 3.51562C109.619-9.17969 83.3984-14.4531 60.9863-16.748ZM36.084-16.748C24.6582-16.748 18.6035-22.7539 18.6035-33.9844L18.6035-46.2891C18.6035-57.5195 24.6582-63.4766 36.084-63.4766L58.3008-63.4766L58.3008-16.748ZM54.4922 17.5781L40.1855-14.209L60.9863-14.209C62.793-14.0137 64.5996-13.8184 66.4551-13.623L71.7285 13.4766C73.1445 20.7031 68.7012 24.8047 63.8672 24.8047C59.4238 24.8047 56.7383 22.6562 54.4922 17.5781Z"/>
  </g>
  <g id="Black-M" transform="matrix(1 0 0 1 2856.57 1126)">
   <path d="M12.4512-36.1328C12.4512-22.9004 18.9453-14.4531 30.5664-12.0117L41.0645 11.3281C44.4336 18.8477 49.6582 22.6074 56.7871 22.6074C66.9434 22.6074 74.4141 14.8438 72.4609 4.78516L69.873-8.54492C82.959-5.37109 96.0449 0.0488281 109.326 7.71484C112.598 11.8652 117.676 14.502 123.34 14.502C133.154 14.502 141.211 6.49414 141.211-3.36914L141.211-76.2207C141.211-86.0352 133.154-94.0918 123.34-94.0918C117.432-94.0918 112.158-91.1621 108.887-86.6699C93.0176-77.002 72.3145-69.7266 55.5664-67.8711L38.1836-67.8711C21.7773-67.8711 12.4512-58.8379 12.4512-42.9688ZM121.191-3.36914L121.191-76.2207C121.191-77.3438 122.168-78.3203 123.34-78.3203C124.463-78.3203 125.439-77.3438 125.439-76.2207L125.439-3.36914C125.439-2.19727 124.463-1.2207 123.34-1.2207C122.168-1.2207 121.191-2.19727 121.191-3.36914ZM60.1074-26.3672L60.1074-52.7832C76.0742-55.0293 91.1621-59.8633 105.469-67.2852L105.469-11.8164C91.0156-19.3359 76.123-24.1699 60.1074-26.3672ZM38.1836-27.002C30.4688-27.002 28.1738-29.1504 28.1738-36.1328L28.1738-42.9688C28.1738-50 30.4688-52.1484 38.1836-52.1484L44.3848-52.1484L44.3848-27.002ZM56.0059 6.78711L47.4121-11.2305L54.1016-11.2305L57.6172 6.44531C57.7148 7.12891 57.4219 7.4707 56.8359 7.4707C56.4453 7.4707 56.2012 7.27539 56.0059 6.78711Z"/>
  </g>
  <g id="Heavy-M" transform="matrix(1 0 0 1 2561.74 1126)">
   <path d="M12.4512-36.0352C12.4512-23.1445 18.7988-14.9902 30.3223-12.793L40.9668 10.791C44.1895 17.9688 49.0723 21.5332 55.8105 21.5332C65.2832 21.5332 72.168 14.4531 70.3125 4.78516L67.4805-9.91211C80.6641-6.88477 93.8477-1.61133 106.934 5.85938C109.863 10.4492 114.99 13.3789 120.898 13.3789C130.127 13.3789 137.451 6.10352 137.451-3.17383L137.451-76.3184C137.451-85.5469 130.127-92.8711 120.898-92.8711C114.746-92.8711 109.473-89.6484 106.592-84.8145C90.9668-75.4395 70.8496-68.6523 54.6387-66.8457L37.1094-66.8457C21.2891-66.8457 12.4512-58.3008 12.4512-43.0176ZM118.164-3.17383L118.164-76.3184C118.164-77.832 119.336-79.0039 120.898-79.0039C122.412-79.0039 123.584-77.832 123.584-76.3184L123.584-3.17383C123.584-1.66016 122.412-0.488281 120.898-0.488281C119.336-0.488281 118.164-1.66016 118.164-3.17383ZM58.252-25.5859L58.252-53.5156C74.5605-55.7129 89.9414-60.5469 104.297-68.1152L104.297-10.9375C89.7949-18.6523 74.6094-23.4375 58.252-25.5859ZM37.1094-26.0742C29.0039-26.0742 26.3184-28.6133 26.3184-36.0352L26.3184-43.0176C26.3184-50.4883 29.0039-52.9785 37.1094-52.9785L44.3848-52.9785L44.3848-26.0742ZM54.1016 6.83594L45.0684-12.207L53.6133-12.207L57.2754 6.29883C57.5195 7.51953 56.8848 8.25195 55.8594 8.25195C54.9805 8.25195 54.541 7.8125 54.1016 6.83594Z"/>
  </g>
  <g id="Bold-M" transform="matrix(1 0 0 1 2267.1 1126)">
   <path d="M12.4512-35.9375C12.4512-23.3887 18.6523-15.625 30.0781-13.7695L40.8691 10.2539C43.9453 16.9922 48.3887 20.3613 54.7852 20.3613C63.4277 20.3613 69.6777 13.9648 67.9199 4.73633L64.7949-11.377C78.2227-8.49609 91.6504-3.41797 104.59 4.00391C107.031 8.93555 112.061 12.1582 118.164 12.1582C126.758 12.1582 133.301 5.66406 133.301-2.97852L133.301-76.416C133.301-85.0586 126.758-91.5527 118.164-91.5527C111.865-91.5527 106.689-88.0859 104.346-82.9102C88.9648-73.7793 69.3359-67.4316 53.5645-65.7227L35.8887-65.7227C20.8008-65.7227 12.4512-57.666 12.4512-43.0664ZM114.795-2.97852L114.795-76.416C114.795-78.3203 116.211-79.7363 118.164-79.7363C120.068-79.7363 121.484-78.3203 121.484-76.416L121.484-2.97852C121.484-1.07422 120.068 0.341797 118.164 0.341797C116.211 0.341797 114.795-1.07422 114.795-2.97852ZM56.25-24.707L56.25-54.3457C72.9004-56.4941 88.6719-61.3281 102.979-69.0918L102.979-9.91211C88.4766-17.8223 72.8516-22.6074 56.25-24.707ZM35.8887-25.0977C27.3438-25.0977 24.2676-28.0273 24.2676-35.9375L24.2676-43.0664C24.2676-51.0254 27.3438-53.9062 35.8887-53.9062L44.4336-53.9062L44.4336-25.0977ZM52.002 6.88477L42.4805-13.2812L53.0762-13.2812L56.9336 6.10352C57.3242 7.95898 56.2988 9.13086 54.7363 9.13086C53.3691 9.13086 52.6855 8.39844 52.002 6.88477Z"/>
  </g>
  <g id="Semibold-M" transform="matrix(1 0 0 1 1971.83 1126)">
   <path d="M12.4512-35.8887C12.4512-23.5352 18.5547-16.0645 29.8828-14.4043L40.8203 9.81445C43.75 16.3086 47.9004 19.5312 54.0527 19.5312C62.1094 19.5312 67.9688 13.623 66.2598 4.73633L62.9395-12.3535C76.6113-9.61914 90.2832-4.58984 103.174 2.83203C105.225 7.95898 110.107 11.2793 116.26 11.2793C124.463 11.2793 130.42 5.32227 130.42-2.88086L130.42-76.4648C130.42-84.668 124.463-90.625 116.26-90.625C109.912-90.625 104.932-87.0605 102.979-81.6895C87.7441-72.7051 68.3105-66.6504 52.7832-64.9414L35.0586-64.9414C20.4102-64.9414 12.4512-57.1777 12.4512-43.1152ZM112.451-2.88086L112.451-76.4648C112.451-78.7109 114.014-80.2734 116.26-80.2734C118.506-80.2734 120.068-78.7109 120.068-76.4648L120.068-2.88086C120.068-0.634766 118.506 0.927734 116.26 0.927734C114.014 0.927734 112.451-0.634766 112.451-2.88086ZM54.834-24.1211L54.834-54.9316C71.7773-56.9824 87.793-61.8652 102.1-69.7754L102.1-9.22852C87.5488-17.2852 71.6797-22.0215 54.834-24.1211ZM35.0586-24.4141C26.2207-24.4141 22.8027-27.5879 22.8027-35.8887L22.8027-43.1152C22.8027-51.3672 26.2207-54.541 35.0586-54.541L44.4824-54.541L44.4824-24.4141ZM50.5371 6.93359L40.6738-14.0625L52.4902-14.0625C52.5879-14.0137 52.6367-14.0137 52.7344-14.0137L56.6895 6.00586C57.1777 8.30078 55.8594 9.7168 53.9551 9.7168C52.2461 9.7168 51.416 8.83789 50.5371 6.93359Z"/>
  </g>
  <g id="Medium-M" transform="matrix(1 0 0 1 1676.22 1126)">
   <path d="M12.4512-35.8398C12.4512-23.6816 18.457-16.4551 29.6875-14.8926L40.7715 9.52148C43.6035 15.8203 47.5586 18.8965 53.4668 18.8965C61.1328 18.8965 66.6504 13.3789 64.9902 4.73633L61.5723-13.1348C75.3906-10.4492 89.3066-5.41992 102.148 1.95312C103.906 7.22656 108.643 10.6445 114.844 10.6445C122.705 10.6445 128.223 5.12695 128.223-2.7832L128.223-76.5137C128.223-84.4238 122.705-89.9414 114.844-89.9414C108.496-89.9414 103.662-86.3281 102.002-80.8105C86.9141-71.875 67.627-66.0156 52.2461-64.3555L34.4238-64.3555C20.166-64.3555 12.4512-56.8848 12.4512-43.1152ZM110.693-2.7832L110.693-76.5137C110.693-78.9551 112.354-80.6641 114.844-80.6641C117.285-80.6641 118.945-78.9551 118.945-76.5137L118.945-2.7832C118.945-0.341797 117.285 1.36719 114.844 1.36719C112.354 1.36719 110.693-0.341797 110.693-2.7832ZM53.7598-23.6328L53.7598-55.3223C70.8984-57.373 87.1582-62.2559 101.416-70.2637L101.416-8.64258C86.8652-16.8457 70.752-21.582 53.7598-23.6328ZM34.4238-23.877C25.3418-23.877 21.7285-27.2949 21.7285-35.8398L21.7285-43.1152C21.7285-51.6602 25.3418-55.0781 34.4238-55.0781L44.4824-55.0781L44.4824-23.877ZM49.4629 6.93359L39.3066-14.5996L51.9531-14.5996C52.0996-14.5996 52.2949-14.5508 52.4902-14.5508L56.4941 5.9082C57.0312 8.49609 55.5664 10.1562 53.3691 10.1562C51.416 10.1562 50.4883 9.13086 49.4629 6.93359Z"/>
  </g>
  <g id="Regular-M" transform="matrix(1 0 0 1 1380.92 1126)">
   <path d="M12.4512-35.7422C12.4512-23.877 18.3594-16.8945 29.4922-15.5762L40.6738 9.13086C43.4082 15.1855 47.1191 18.1152 52.7832 18.1152C59.8633 18.1152 64.9414 13.0371 63.3301 4.6875L59.7168-14.0625C73.8281-11.5234 88.1348-6.54297 100.928 0.927734C102.295 6.34766 106.787 9.76562 112.939 9.76562C120.41 9.76562 125.391 4.78516 125.391-2.63672L125.391-76.5625C125.391-84.0332 120.41-89.0137 112.939-89.0137C106.592-89.0137 102.051-85.4004 100.83-79.7363C85.8398-70.8496 66.6992-65.1855 51.5137-63.5742L33.5938-63.5742C19.7754-63.5742 12.4512-56.4453 12.4512-43.1641ZM108.398-2.63672L108.398-76.5625C108.398-79.3457 110.205-81.1523 112.939-81.1523C115.674-81.1523 117.529-79.3457 117.529-76.5625L117.529-2.63672C117.529 0.0976562 115.674 1.9043 112.939 1.9043C110.205 1.9043 108.398 0.0976562 108.398-2.63672ZM52.3926-23.0469L52.3926-55.9082C69.7754-57.9102 86.3281-62.793 100.537-70.9473L100.537-7.95898C85.9863-16.3086 69.5801-21.0449 52.3926-23.0469ZM33.5938-23.1934C24.2188-23.1934 20.3125-26.9043 20.3125-35.7422L20.3125-43.1641C20.3125-52.002 24.2188-55.7129 33.5938-55.7129L44.5312-55.7129L44.5312-23.1934ZM47.998 6.98242L37.5488-15.332L51.2207-15.332C51.5137-15.332 51.8066-15.2832 52.0996-15.2344L56.2988 5.81055C56.8848 8.83789 55.1758 10.7422 52.6367 10.7422C50.3418 10.7422 49.2188 9.57031 47.998 6.98242Z"/>
  </g>
  <g id="Light-M" transform="matrix(1 0 0 1 1086.48 1126)">
   <path d="M12.4512-35.3027C12.4512-23.8281 18.2617-17.3828 29.3457-16.5527L40.5273 8.10547C43.1641 13.8672 46.5332 16.5527 51.7578 16.5527C58.252 16.5527 62.9883 11.8652 61.4746 3.85742L57.7637-15.3809C72.2656-12.9395 87.4023-8.05664 99.2188-0.341797C99.8535 5.37109 104.004 9.08203 110.01 9.08203C116.553 9.08203 120.85 4.73633 120.85-1.80664L120.85-77.0508C120.85-83.5449 116.553-87.8906 110.01-87.8906C103.906-87.8906 99.707-84.082 99.2188-78.2227C85.498-69.1895 65.8203-63.8184 50.1953-62.1582L31.8359-62.1582C19.1406-62.1582 12.4512-55.6152 12.4512-43.3594ZM105.225-1.80664L105.225-77.0508C105.225-79.9316 107.129-81.8848 110.01-81.8848C112.891-81.8848 114.844-79.9316 114.844-77.0508L114.844-1.80664C114.844 1.12305 112.891 3.02734 110.01 3.02734C107.129 3.02734 105.225 1.12305 105.225-1.80664ZM50.7812-22.4121L50.7812-56.2988C68.1641-58.2031 85.791-62.8418 99.1699-71.4844L99.1699-7.12891C85.5469-15.918 68.0664-20.459 50.7812-22.4121ZM31.8359-22.5098C22.6562-22.5098 18.5059-26.4648 18.5059-35.3027L18.5059-43.3594C18.5059-52.1484 22.6562-56.1523 31.8359-56.1523L44.7266-56.1523L44.7266-22.5098ZM46.2402 6.5918L35.5469-16.4551L50-16.4551C50.6348-16.4062 51.2695-16.3086 51.9531-16.2109L56.0547 4.78516C56.8359 8.59375 54.541 10.8887 51.6602 10.8887C48.9746 10.8887 47.5586 9.57031 46.2402 6.5918Z"/>
  </g>
  <g id="Thin-M" transform="matrix(1 0 0 1 792.75 1126)">
   <path d="M12.4512-34.668C12.4512-23.877 18.1641-18.0664 29.1016-17.9199L40.332 6.68945C42.8223 12.1582 45.752 14.4531 50.3906 14.4531C56.1523 14.4531 60.4004 10.2539 58.9844 2.7832L55.2246-17.0898C70.3125-14.8438 86.8652-9.96094 97.3633-1.75781L97.3633-0.634766C97.3633 4.63867 100.879 8.10547 106.152 8.10547C111.426 8.10547 114.893 4.63867 114.893-0.634766L114.893-77.6855C114.893-82.9102 111.426-86.4258 106.152-86.4258C100.879-86.4258 97.3633-82.9102 97.3633-77.6855L97.3633-76.5137C85.3516-67.041 64.8438-62.0117 48.4375-60.3516L29.541-60.3516C18.3105-60.3516 12.4512-54.5898 12.4512-43.6035ZM100.977-0.634766L100.977-77.6855C100.977-80.7617 103.076-82.8125 106.152-82.8125C109.229-82.8125 111.279-80.7617 111.279-77.6855L111.279-0.634766C111.279 2.44141 109.229 4.49219 106.152 4.49219C103.076 4.49219 100.977 2.44141 100.977-0.634766ZM48.6328-21.5332L48.6328-56.7871C66.0156-58.6426 85.2051-62.9395 97.3633-72.2656L97.3633-6.00586C85.1074-15.3809 65.9668-19.6777 48.6328-21.5332ZM29.541-21.5332C20.5566-21.5332 16.0645-25.9277 16.0645-34.668L16.0645-43.6035C16.0645-52.3926 20.5566-56.7383 29.541-56.7383L44.9707-56.7383L44.9707-21.5332ZM43.8477 6.05469L32.959-17.9199L48.3887-17.9199C49.4629-17.8223 50.5859-17.6758 51.709-17.5781L55.7617 3.4668C56.7383 8.30078 53.7598 11.1328 50.3906 11.1328C47.2656 11.1328 45.4102 9.61914 43.8477 6.05469Z"/>
  </g>
  <g id="Ultralight-M" transform="matrix(1 0 0 1 497.553 1126)">
   <path d="M12.4512-34.375C12.4512-24.0723 17.9199-18.7012 28.3691-18.7012L28.9551-18.7012L40.2344 6.00586C42.6758 11.2793 45.3125 13.3789 49.707 13.3789C55.0781 13.3789 59.082 9.42383 57.7148 2.19727L53.9062-17.9199C69.3359-15.7715 86.7188-10.9375 96.4355-2.44141L96.4355-0.0488281C96.4355 4.54102 99.5117 7.61719 104.15 7.61719C108.789 7.61719 111.865 4.54102 111.865-0.0488281L111.865-77.9785C111.865-82.6172 108.789-85.6934 104.15-85.6934C99.5117-85.6934 96.4355-82.6172 96.4355-77.9785L96.4355-75.6836C85.3516-65.9668 64.3555-61.0352 47.5098-59.4238L28.3691-59.4238C17.9199-59.4238 12.4512-54.0527 12.4512-43.75ZM98.8281-0.0488281L98.8281-77.9785C98.8281-81.1523 100.977-83.3008 104.15-83.3008C107.324-83.3008 109.473-81.1523 109.473-77.9785L109.473-0.0488281C109.473 3.125 107.324 5.22461 104.15 5.22461C100.977 5.22461 98.8281 3.125 98.8281-0.0488281ZM47.5586-21.0938L47.5098-21.0938L47.5098-57.0312L47.5586-57.0312C64.8926-58.8379 84.9609-62.9883 96.4355-72.7051L96.4355-5.41992C84.9609-15.1367 64.8926-19.2871 47.5586-21.0938ZM28.3691-21.0938C19.4824-21.0938 14.8438-25.6348 14.8438-34.375L14.8438-43.75C14.8438-52.4902 19.4824-57.0312 28.3691-57.0312L45.1172-57.0312L45.1172-21.0938ZM42.627 5.81055L31.5918-18.7012L47.5586-18.7012C48.877-18.5547 50.1953-18.4082 51.5625-18.2617L55.6152 2.7832C56.6895 8.1543 53.3691 11.2305 49.707 11.2305C46.3379 11.2305 44.3359 9.61914 42.627 5.81055Z"/>
  </g>
  <g id="Black-S" transform="matrix(1 0 0 1 2873.32 696)">
   <path d="M9.76562-35.9375C9.76562-25.5859 14.8438-18.9941 23.9746-17.0898L32.1777 1.2207C34.8145 7.08008 38.8672 10.0098 44.4336 10.0098C52.3438 10.0098 58.1543 4.00391 56.6406-3.85742L54.5898-14.4043C64.8438-11.9141 75.0977-7.71484 85.498-1.70898C88.0859 1.5625 92.041 3.66211 96.4844 3.66211C104.15 3.66211 110.4-2.58789 110.4-10.2539L110.4-67.334C110.4-75 104.15-81.25 96.4844-81.25C91.8457-81.25 87.6953-78.9551 85.1562-75.4395C72.7051-67.8711 56.543-62.207 43.5059-60.7422L29.8828-60.7422C17.041-60.7422 9.76562-53.7109 9.76562-41.3086ZM94.7754-10.2539L94.7754-67.334C94.7754-68.2617 95.5566-69.043 96.4844-69.043C97.4121-69.043 98.1934-68.2617 98.1934-67.334L98.1934-10.2539C98.1934-9.32617 97.4121-8.54492 96.4844-8.54492C95.5566-8.54492 94.7754-9.32617 94.7754-10.2539ZM46.9727-28.2715L46.9727-49.0723C59.5215-50.7812 71.3379-54.5898 82.5684-60.4004L82.5684-16.8457C71.2402-22.7539 59.5703-26.5137 46.9727-28.2715ZM29.8828-28.7109C23.7793-28.7109 21.9727-30.4199 21.9727-35.9375L21.9727-41.3086C21.9727-46.8262 23.7793-48.5352 29.8828-48.5352L34.7656-48.5352L34.7656-28.7109ZM43.75-2.29492L37.0117-16.5039L42.3828-16.5039L45.1172-2.58789C45.2148-2.00195 44.9707-1.70898 44.4824-1.70898C44.1406-1.70898 43.9453-1.9043 43.75-2.29492Z"/>
  </g>
  <g id="Heavy-S" transform="matrix(1 0 0 1 2577.78 696)">
   <path d="M9.76562-35.9375C9.76562-25.7812 14.7461-19.3848 23.7793-17.627L32.1289 0.927734C34.668 6.54297 38.4766 9.375 43.7988 9.375C51.2695 9.375 56.6895 3.80859 55.2246-3.75977L52.9785-15.2832C63.3301-12.8906 73.6328-8.78906 83.9844-2.88086C86.3281 0.634766 90.332 2.88086 94.9219 2.88086C102.295 2.88086 108.057-2.88086 108.057-10.2051L108.057-67.334C108.057-74.707 102.295-80.4688 94.9219-80.4688C90.1367-80.4688 85.9863-77.9785 83.7402-74.2188C71.2891-66.8945 55.5664-61.5234 42.9199-60.1074L29.248-60.1074C16.748-60.1074 9.76562-53.3691 9.76562-41.3086ZM92.8223-10.2051L92.8223-67.334C92.8223-68.5547 93.75-69.4824 94.9219-69.4824C96.1426-69.4824 97.0703-68.5547 97.0703-67.334L97.0703-10.2051C97.0703-9.0332 96.1426-8.10547 94.9219-8.10547C93.75-8.10547 92.8223-9.0332 92.8223-10.2051ZM45.752-27.7344L45.752-49.5605C58.5449-51.2695 70.5078-55.0781 81.8359-60.9863L81.8359-16.2109C70.3613-22.2168 58.5449-26.0254 45.752-27.7344ZM29.248-28.125C22.8516-28.125 20.752-30.0781 20.752-35.9375L20.752-41.3086C20.752-47.168 22.8516-49.1211 29.248-49.1211L34.7656-49.1211L34.7656-28.125ZM42.5293-2.19727L35.4492-17.1387L42.041-17.1387L44.9219-2.58789C45.0684-1.66016 44.6289-1.12305 43.8477-1.12305C43.1641-1.12305 42.8711-1.46484 42.5293-2.19727Z"/>
  </g>
  <g id="Bold-S" transform="matrix(1 0 0 1 2282.39 696)">
   <path d="M9.76562-35.8887C9.76562-25.9766 14.6484-19.8242 23.584-18.2129L32.0801 0.634766C34.4727 5.95703 38.0371 8.64258 43.1152 8.64258C50 8.64258 54.9805 3.61328 53.6133-3.71094L51.1719-16.2598C61.6699-13.9648 72.0703-9.91211 82.5195-4.15039C84.5215-0.390625 88.4766 2.00195 93.2129 2.00195C100.195 2.00195 105.42-3.22266 105.42-10.2051L105.42-67.3828C105.42-74.3652 100.195-79.5898 93.2129-79.5898C88.2812-79.5898 84.2285-76.9531 82.2754-72.998C69.873-65.8203 54.541-60.791 42.2363-59.4238L28.5156-59.4238C16.4551-59.4238 9.76562-52.9785 9.76562-41.3086ZM90.625-10.2051L90.625-67.3828C90.625-68.8477 91.6992-69.9707 93.2129-69.9707C94.7266-69.9707 95.8008-68.8477 95.8008-67.3828L95.8008-10.2051C95.8008-8.69141 94.7266-7.61719 93.2129-7.61719C91.6992-7.61719 90.625-8.69141 90.625-10.2051ZM44.3848-27.1484L44.3848-50.1465C57.4707-51.8066 69.6289-55.6641 81.0059-61.6699L81.0059-15.5273C69.4336-21.6797 57.4219-25.4395 44.3848-27.1484ZM28.5156-27.4414C21.7773-27.4414 19.3848-29.6387 19.3848-35.8887L19.3848-41.3086C19.3848-47.5586 21.7773-49.8047 28.5156-49.8047L34.7656-49.8047L34.7656-27.4414ZM41.1133-2.14844L33.6914-17.8223L41.6504-17.8223L44.6777-2.58789C44.9219-1.31836 44.2383-0.488281 43.0664-0.488281C42.0898-0.488281 41.6504-1.02539 41.1133-2.14844Z"/>
  </g>
  <g id="Semibold-S" transform="matrix(1 0 0 1 1986.58 696)">
   <path d="M9.76562-35.8887C9.76562-26.0742 14.5508-20.1172 23.4375-18.6523L32.0312 0.390625C34.375 5.56641 37.7441 8.1543 42.6758 8.1543C49.1699 8.1543 53.8574 3.4668 52.4902-3.66211L49.9023-16.8945C60.5469-14.6973 71.0938-10.6934 81.543-4.93164C83.3496-1.07422 87.207 1.41602 91.9922 1.41602C98.7305 1.41602 103.613-3.41797 103.613-10.1562L103.613-67.3828C103.613-74.1211 98.7305-78.9551 91.9922-78.9551C87.0117-78.9551 83.0566-76.3184 81.3477-72.168C68.9941-65.1367 53.8574-60.2539 41.7969-58.9355L28.0273-58.9355C16.2109-58.9355 9.76562-52.6855 9.76562-41.3086ZM89.1113-10.1562L89.1113-67.3828C89.1113-69.0918 90.2832-70.2637 91.9922-70.2637C93.7012-70.2637 94.9219-69.0918 94.9219-67.3828L94.9219-10.1562C94.9219-8.44727 93.7012-7.27539 91.9922-7.27539C90.2832-7.27539 89.1113-8.44727 89.1113-10.1562ZM43.457-26.709L43.457-50.5371C56.6895-52.1973 68.9941-56.0547 80.4199-62.1582L80.4199-15.0879C68.75-21.2891 56.6406-25.0488 43.457-26.709ZM28.0273-26.9531C21.0449-26.9531 18.457-29.3945 18.457-35.8887L18.457-41.3086C18.457-47.8516 21.0449-50.2441 28.0273-50.2441L34.7656-50.2441L34.7656-26.9531ZM40.1855-2.05078L32.4707-18.3105L41.4062-18.3105L44.4824-2.58789C44.8242-1.07422 43.9941-0.0488281 42.5781-0.0488281C41.3574-0.0488281 40.8203-0.683594 40.1855-2.05078Z"/>
  </g>
  <g id="Medium-S" transform="matrix(1 0 0 1 1690.57 696)">
   <path d="M9.76562-35.8887C9.76562-26.2207 14.502-20.3613 23.3398-18.9453L31.9824 0.244141C34.2773 5.27344 37.5 7.8125 42.2852 7.8125C48.5352 7.8125 52.9785 3.32031 51.6602-3.61328L48.9746-17.3828C59.7168-15.2344 70.3613-11.2793 80.8594-5.51758C82.4707-1.5625 86.2793 0.976562 91.1133 0.976562C97.6562 0.976562 102.197-3.61328 102.197-10.1562L102.197-67.3828C102.197-73.9258 97.6562-78.5156 91.1133-78.5156C86.084-78.5156 82.2266-75.8301 80.7129-71.582C68.3105-64.5996 53.3691-59.9121 41.4551-58.5449L27.6367-58.5449C16.0645-58.5449 9.76562-52.4902 9.76562-41.3574ZM87.9883-10.1562L87.9883-67.3828C87.9883-69.2383 89.2578-70.5566 91.1133-70.5566C92.9688-70.5566 94.2383-69.2383 94.2383-67.3828L94.2383-10.1562C94.2383-8.30078 92.9688-6.98242 91.1133-6.98242C89.2578-6.98242 87.9883-8.30078 87.9883-10.1562ZM42.7734-26.416L42.7734-50.8301C56.1523-52.4902 68.5547-56.3965 79.9805-62.5L79.9805-14.6973C68.2617-20.9961 56.0547-24.7559 42.7734-26.416ZM27.6367-26.6113C20.5078-26.6113 17.7246-29.1504 17.7246-35.8887L17.7246-41.3574C17.7246-48.0469 20.5078-50.5859 27.6367-50.5859L34.8145-50.5859L34.8145-26.6113ZM39.4531-2.00195L31.5918-18.6523L41.1621-18.6523L44.3848-2.58789C44.7266-0.878906 43.75 0.292969 42.1875 0.292969C40.8203 0.292969 40.1855-0.439453 39.4531-2.00195Z"/>
  </g>
  <g id="Regular-S" transform="matrix(1 0 0 1 1394.74 696)">
   <path d="M9.76562-35.8887C9.76562-26.3184 14.4043-20.6543 23.1934-19.3848L31.9824 0.0488281C34.1309 4.88281 37.207 7.32422 41.8457 7.32422C47.7051 7.32422 51.8555 3.17383 50.5371-3.56445L47.7539-18.0176C58.6426-15.918 69.4824-11.9629 80.0293-6.25C81.3965-2.14844 85.0586 0.390625 89.9414 0.390625C96.2402 0.390625 100.439-3.80859 100.439-10.1074L100.439-67.3828C100.439-73.6816 96.2402-77.8809 89.9414-77.8809C84.8633-77.8809 81.1523-75.1953 79.8828-70.8496C67.5293-63.9648 52.6855-59.375 41.0156-58.1055L27.1484-58.1055C15.8203-58.1055 9.76562-52.1973 9.76562-41.3574ZM86.4746-10.1074L86.4746-67.3828C86.4746-69.4824 87.8418-70.8496 89.9414-70.8496C91.9922-70.8496 93.3594-69.4824 93.3594-67.3828L93.3594-10.1074C93.3594-8.05664 91.9922-6.64062 89.9414-6.64062C87.8418-6.64062 86.4746-8.05664 86.4746-10.1074ZM41.8457-25.9766L41.8457-51.2695C55.4199-52.8809 67.9199-56.7871 79.4434-62.9883L79.4434-14.2578C67.627-20.6055 55.2734-24.3652 41.8457-25.9766ZM27.1484-26.1719C19.7754-26.1719 16.7969-28.9062 16.7969-35.8887L16.7969-41.3574C16.7969-48.291 19.7754-51.0254 27.1484-51.0254L34.8145-51.0254L34.8145-26.1719ZM38.4766-1.95312L30.3711-19.1406L40.7227-19.1406L40.918-19.0918L44.1895-2.58789C44.6289-0.634766 43.5059 0.732422 41.6992 0.732422C40.0879 0.732422 39.3555-0.146484 38.4766-1.95312Z"/>
  </g>
  <g id="Light-S" transform="matrix(1 0 0 1 1100.03 696)">
   <path d="M9.76562-35.4492C9.76562-26.3184 14.3555-21.0449 23.0469-20.2148L31.8359-0.878906C33.9355 3.71094 36.6699 5.9082 40.918 5.9082C46.2891 5.9082 50.0977 2.09961 48.877-4.29688L46.0449-19.1895C57.2266-17.2363 68.75-13.3789 78.3691-7.42188C79.1504-3.07617 82.5195-0.244141 87.3535-0.244141C92.7734-0.244141 96.4355-3.90625 96.4355-9.375L96.4355-67.8223C96.4355-73.291 92.7734-76.9043 87.3535-76.9043C82.4707-76.9043 79.0039-74.0234 78.3691-69.4824C67.0898-62.4512 51.9043-58.1543 39.8438-56.8848L25.6348-56.8848C15.2832-56.8848 9.76562-51.5137 9.76562-41.5039ZM83.6426-9.375L83.6426-67.8223C83.6426-70.0195 85.1074-71.4844 87.3535-71.4844C89.5508-71.4844 91.0156-70.0195 91.0156-67.8223L91.0156-9.375C91.0156-7.12891 89.5508-5.66406 87.3535-5.66406C85.1074-5.66406 83.6426-7.12891 83.6426-9.375ZM40.3809-25.4395L40.3809-51.5625C54.0527-53.125 67.4316-56.8359 78.2227-63.4277L78.2227-13.5254C67.1875-20.2637 53.9062-23.877 40.3809-25.4395ZM25.6348-25.5371C18.3594-25.5371 15.1855-28.5156 15.1855-35.4492L15.1855-41.5039C15.1855-48.4375 18.3594-51.4648 25.6348-51.4648L34.9609-51.4648L34.9609-25.5371ZM36.9141-2.29492L28.6133-20.1172L39.6484-20.1172C40.0391-20.0684 40.3809-20.0195 40.7715-19.9707L43.9941-3.51562C44.5801-0.830078 42.9688 0.878906 40.8691 0.878906C38.916 0.878906 37.8906-0.146484 36.9141-2.29492Z"/>
  </g>
  <g id="Thin-S" transform="matrix(1 0 0 1 805.958 696)">
   <path d="M9.76562-34.9121C9.76562-26.3184 14.2578-21.6797 22.8516-21.3867L31.6406-2.09961C33.6426 2.24609 35.9863 4.10156 39.7461 4.10156C44.3848 4.10156 47.8516 0.683594 46.6797-5.22461L43.75-20.7031C55.4688-18.8965 68.1152-15.0879 76.6602-8.74023L76.6602-8.34961C76.6602-4.00391 79.541-1.07422 83.8867-1.07422C88.2812-1.07422 91.1621-4.00391 91.1621-8.34961L91.1621-68.3594C91.1621-72.7051 88.2812-75.6348 83.8867-75.6348C79.541-75.6348 76.6602-72.7051 76.6602-68.3594L76.6602-67.8711C66.8945-60.5469 50.9766-56.543 38.2812-55.2734L23.584-55.2734C14.5508-55.2734 9.76562-50.5859 9.76562-41.748ZM79.9316-8.34961L79.9316-68.3594C79.9316-70.752 81.543-72.3145 83.8867-72.3145C86.2793-72.3145 87.8906-70.752 87.8906-68.3594L87.8906-8.34961C87.8906-5.95703 86.2793-4.39453 83.8867-4.39453C81.543-4.39453 79.9316-5.95703 79.9316-8.34961ZM38.5254-24.6582L38.5254-52.002C52.1484-53.4668 66.8457-56.9336 76.6602-64.1113L76.6602-12.5488C66.748-19.7754 52.0996-23.1934 38.5254-24.6582ZM23.584-24.707C16.5039-24.707 13.0859-28.0273 13.0859-34.9121L13.0859-41.748C13.0859-48.6328 16.5039-51.9531 23.584-51.9531L35.2051-51.9531L35.2051-24.707ZM34.8145-2.7832L26.3184-21.3867L38.2324-21.3867C38.9648-21.3379 39.7461-21.2402 40.5762-21.1426L43.75-4.6875C44.4824-1.07422 42.2852 1.02539 39.7461 1.02539C37.3535 1.02539 36.0352-0.0976562 34.8145-2.7832Z"/>
  </g>
  <g id="Ultralight-S" transform="matrix(1 0 0 1 510.59 696)">
   <path d="M9.76562-34.6191C9.76562-26.416 14.1602-22.0703 22.5586-22.0703L22.7539-22.0703L31.543-2.73438C33.4961 1.46484 35.6445 3.125 39.1602 3.125C43.457 3.125 46.6797-0.0488281 45.5566-5.76172L42.5781-21.4355C54.5898-19.7266 67.9688-15.918 75.8301-9.375L75.8301-7.8125C75.8301-4.05273 78.3691-1.51367 82.1289-1.51367C85.9375-1.51367 88.4766-4.05273 88.4766-7.8125L88.4766-68.6523C88.4766-72.4121 85.9375-74.9512 82.1289-74.9512C78.3691-74.9512 75.8301-72.4121 75.8301-68.6523L75.8301-67.1387C66.8945-59.6191 50.5859-55.7129 37.5-54.4434L22.5586-54.4434C14.1602-54.4434 9.76562-50.0977 9.76562-41.8457ZM78.0273-7.8125L78.0273-68.6523C78.0273-71.0938 79.6875-72.7539 82.1289-72.7539C84.6191-72.7539 86.2793-71.0938 86.2793-68.6523L86.2793-7.8125C86.2793-5.37109 84.6191-3.71094 82.1289-3.71094C79.6875-3.71094 78.0273-5.37109 78.0273-7.8125ZM37.5488-24.2676L37.5488-52.2461C51.0742-53.6621 66.6016-56.9336 75.8301-64.4531L75.8301-12.0117C66.6016-19.5801 51.123-22.8516 37.5488-24.2676ZM22.5586-24.2676C15.5273-24.2676 11.9629-27.7832 11.9629-34.6191L11.9629-41.8457C11.9629-48.7305 15.5273-52.2461 22.5586-52.2461L35.3027-52.2461L35.3027-24.2676ZM33.7402-3.02734L25.1465-22.0703L37.4512-22.0703C38.4277-21.9727 39.4531-21.875 40.4297-21.7285L43.6523-5.27344C44.4336-1.17188 41.9434 1.17188 39.1602 1.17188C36.5723 1.17188 35.0586-0.0976562 33.7402-3.02734Z"/>
  </g>
 </g>
</svg>
